<?xml version="1.0" encoding="utf-8"?>
<!-- Generator: Adobe Illustrator 25.2.3, SVG Export Plug-In . SVG Version: 6.00 Build 0)  -->
<svg version="1.1" id="Layer_1" xmlns="http://www.w3.org/2000/svg" xmlns:xlink="http://www.w3.org/1999/xlink" x="0px" y="0px"
	 viewBox="0 0 128 128" style="enable-background:new 0 0 128 128;" xml:space="preserve">
<style type="text/css">
	.st0{fill:#009FE3;}
</style>
<g id="_5">
	<g>
		<path class="st0" d="M76.7,109.2H51.3c-16.2,0-29.5-13.2-29.5-29.5V48.2c0-16.2,13.2-29.5,29.5-29.5h25.3
			c16.2,0,29.5,13.2,29.5,29.5v31.5C106.1,96,92.9,109.2,76.7,109.2z M51.3,23.8c-13.5,0-24.5,11-24.5,24.5v31.5
			c0,13.5,11,24.5,24.5,24.5h25.3c13.5,0,24.5-11,24.5-24.5V48.2c0-13.5-11-24.5-24.5-24.5H51.3z"/>
	</g>
	<g>
		<path class="st0" d="M89.2,55.2l-5-8.6L69,55.4V37.7H59v17.7l-15.3-8.8l-5,8.6L54.1,64l-15.3,8.8l5,8.6L59,72.6v17.7h10V72.6
			l15.3,8.8l5-8.6L73.9,64L89.2,55.2z M64,70.9c-3.8,0-6.9-3.1-6.9-6.9c0-3.8,3.1-6.9,6.9-6.9c3.8,0,6.9,3.1,6.9,6.9
			C70.9,67.8,67.8,70.9,64,70.9z"/>
	</g>
</g>
</svg>
