<svg id="_1" data-name="1" xmlns="http://www.w3.org/2000/svg" viewBox="0 0 128 128"><defs><style>.cls-1{fill:#009fe3;fill-rule:evenodd;}</style></defs><title>piktogramy</title><path class="cls-1" d="M64,76.2A12.2,12.2,0,1,1,76.2,64,12.2,12.2,0,0,1,64,76.2m38.25,7.14-7.86-4.52,7.4-4.28a1.79,1.79,0,0,0,.64-2.44L100.63,69a1.78,1.78,0,0,0-2.43-.64L87.26,74.73l-4.87-4.34,10.8-4.76a1.79,1.79,0,0,0,0-3.26l-11-4.82,5-2.84,11,6.4a1.79,1.79,0,0,0,2.44-.64l1.79-3.07a1.79,1.79,0,0,0-.64-2.44l-7.46-4.34,7.87-4.52a1.78,1.78,0,0,0,.65-2.43l-1.78-3.08a1.79,1.79,0,0,0-2.44-.65l-7.87,4.52V35.84A1.79,1.79,0,0,0,89,34.06l-3.56,0a1.78,1.78,0,0,0-1.77,1.79l0,12.67-5.47,3.1V41.07a1.77,1.77,0,0,0-2.83-1.61l-7.83,5.42V37.6l11-6.32a1.78,1.78,0,0,0,.66-2.43L77.5,25.76a1.76,1.76,0,0,0-2.42-.66l-7.52,4.3V23.08a1.78,1.78,0,0,0-1.78-1.78H62.22a1.78,1.78,0,0,0-1.78,1.78v6.35L52.93,25.1a1.77,1.77,0,0,0-2.43.66l-1.77,3.09a1.79,1.79,0,0,0,.66,2.43l11,6.35v7.21L52.69,39.5a1.75,1.75,0,0,0-1.07-.36h-.07a1.77,1.77,0,0,0-1.78,1.77v11l-5.44-4.81,0-12.75a1.78,1.78,0,0,0-1.77-1.79H39a1.77,1.77,0,0,0-1.78,1.77l0,8.7L29.32,38.5a1.79,1.79,0,0,0-2.44.65L25.1,42.23a1.78,1.78,0,0,0,.65,2.43l7.87,4.52-7.41,4.28a1.78,1.78,0,0,0-.63,2.44L27.37,59a1.77,1.77,0,0,0,2.43.64l10.94-6.34,4.87,4.35L34.82,62.37a1.78,1.78,0,0,0,0,3.26l10.94,4.82-5,2.84-11-6.4a1.79,1.79,0,0,0-2.44.64l-1.79,3.08A1.78,1.78,0,0,0,26.16,73l7.46,4.34L25.75,81.9a1.78,1.78,0,0,0-.65,2.43l1.78,3.09a1.79,1.79,0,0,0,2.44.64l7.88-4.52v8.62A1.79,1.79,0,0,0,39,93.94l3.56,0a1.77,1.77,0,0,0,1.77-1.79l0-12.67,5.47-3.1V86.93a1.77,1.77,0,0,0,2.83,1.61l7.83-5.42V90.4l-11,6.33a1.78,1.78,0,0,0-.66,2.42l1.77,3.09a1.78,1.78,0,0,0,2.43.66l7.51-4.3v6.32a1.78,1.78,0,0,0,1.78,1.78h3.56a1.78,1.78,0,0,0,1.78-1.78V98.57l7.52,4.33a1.77,1.77,0,0,0,2.42-.66l1.77-3.09a1.77,1.77,0,0,0-.66-2.42l-11-6.36V83.16l7.75,5.34a1.74,1.74,0,0,0,1.08.37h.06a1.78,1.78,0,0,0,1.78-1.78v-11l5.45,4.81-.05,12.75a1.79,1.79,0,0,0,1.77,1.79H89a1.77,1.77,0,0,0,1.78-1.77l0-8.7,7.9,4.54a1.79,1.79,0,0,0,2.44-.65l1.78-3.08A1.78,1.78,0,0,0,102.25,83.34Z"/></svg>