<?xml version="1.0" encoding="utf-8"?>
<!-- Generator: Adobe Illustrator 25.2.3, SVG Export Plug-In . SVG Version: 6.00 Build 0)  -->
<svg version="1.1" id="Layer_1" xmlns="http://www.w3.org/2000/svg" xmlns:xlink="http://www.w3.org/1999/xlink" x="0px" y="0px"
	 viewBox="0 0 128 128" style="enable-background:new 0 0 128 128;" xml:space="preserve">
<style type="text/css">
	.st0{fill:#009FE3;}
</style>
<g id="_6">
	<g>
		<path class="st0" d="M49.9,69h3.8l6.1,12.5l-0.3,0.3V69h2.9v16.3h-3.8L52.6,73l0.3-0.3v12.6h-2.9V69z"/>
	</g>
	<g>
		<path class="st0" d="M66,69h3.1v16.3H66V69z M67.4,75.8H77v3h-9.5L67.4,75.8z M75,69h3.1v16.3H75V69z"/>
	</g>
	<g>
		<path class="st0" d="M82.5,93.1l-0.7-0.3c-0.4-0.2-0.8-0.5-1.1-0.9c-0.3-0.4-0.4-0.9-0.4-1.4h1.8c0,0.2,0.1,0.4,0.2,0.5
			c0.1,0.1,0.2,0.2,0.3,0.3c0.4,0.2,1,0.1,1.3-0.2c0.2-0.2,0.3-0.5,0.3-0.8V90c0-0.3-0.1-0.6-0.2-0.8c-0.1-0.2-0.4-0.3-0.6-0.3h-0.8
			v-1.7h0.8c0.2,0,0.4-0.1,0.5-0.2c0.1-0.2,0.2-0.5,0.2-0.7V86c0-0.2-0.1-0.5-0.2-0.7c-0.1-0.2-0.4-0.3-0.6-0.2
			c-0.2,0-0.3,0-0.4,0.1c-0.1,0.1-0.3,0.2-0.3,0.4c-0.1,0.2-0.2,0.4-0.2,0.6h-1.9c0-0.5,0.2-1,0.5-1.5c0.2-0.4,0.6-0.8,1-1
			c0.4-0.2,0.9-0.3,1.4-0.3c0.7-0.1,1.4,0.2,2,0.7c0.5,0.5,0.7,1.1,0.7,1.8v0.3c0,0.9-0.5,1.7-1.3,1.9c0.4,0.1,0.8,0.3,1.1,0.7
			c0.3,0.4,0.4,0.9,0.4,1.4v0.3c0,0.5-0.1,1-0.3,1.4c-0.2,0.4-0.6,0.7-1,0.9c-0.5,0.2-1,0.3-1.5,0.3L82.5,93.1z"/>
	</g>
	<g>
		<rect x="8" y="65.2" class="st0" width="25.7" height="5"/>
	</g>
	<g>
		<rect x="8" y="84.5" class="st0" width="25.7" height="5"/>
	</g>
	<g>
		<rect x="7.5" y="54.8" class="st0" width="5" height="45.1"/>
	</g>
	<g>
		<rect x="95.3" y="84.5" class="st0" width="25.7" height="5"/>
	</g>
	<g>
		<rect x="95.3" y="65.2" class="st0" width="25.7" height="5"/>
	</g>
	<g>
		<rect x="116.6" y="54.8" class="st0" width="5" height="45.1"/>
	</g>
	<g>
		<rect x="71.1" y="21.3" class="st0" width="5" height="25.7"/>
	</g>
	<g>
		<rect x="51.9" y="21.3" class="st0" width="5" height="25.7"/>
	</g>
	<g>
		<rect x="41.5" y="20.8" class="st0" width="45.1" height="5"/>
	</g>
	<g>
		<path class="st0" d="M82.3,109.2H45.7c-8,0-14.5-6.5-14.5-14.5V58.1c0-8,6.5-14.5,14.5-14.5h36.6c8,0,14.5,6.5,14.5,14.5v36.6
			C96.8,102.7,90.3,109.2,82.3,109.2z M45.7,48.6c-5.2,0-9.5,4.3-9.5,9.5v36.6c0,5.2,4.3,9.5,9.5,9.5h36.6c5.2,0,9.5-4.3,9.5-9.5
			V58.1c0-5.2-4.3-9.5-9.5-9.5H45.7z"/>
	</g>
</g>
</svg>
