<?xml version="1.0" encoding="UTF-8"?>
<!DOCTYPE svg PUBLIC "-//W3C//DTD SVG 1.1//EN" "http://www.w3.org/Graphics/SVG/1.1/DTD/svg11.dtd">
<!-- Creator: CorelDRAW -->
<svg xmlns="http://www.w3.org/2000/svg" xml:space="preserve" width="11.4308mm" height="12.1077mm" version="1.1" style="shape-rendering:geometricPrecision; text-rendering:geometricPrecision; image-rendering:optimizeQuality; fill-rule:evenodd; clip-rule:evenodd"
viewBox="0 0 316.99 335.76"
 xmlns:xlink="http://www.w3.org/1999/xlink"
 xmlns:xodm="http://www.corel.com/coreldraw/odm/2003">
 <defs>
  <style type="text/css">
   <![CDATA[
    .str0 {stroke:#1E1926;stroke-width:19.56;stroke-linecap:round;stroke-linejoin:round;stroke-miterlimit:10}
    .fil0 {fill:none}
   ]]>
  </style>
 </defs>
 <g id="Warstwa_x0020_1">
  <metadata id="CorelCorpID_0Corel-Layer"/>
  <path class="fil0 str0" d="M100.97 244.21c0,-42.18 34.15,-76.33 76.3,-76.33 42.15,0 76.33,34.15 76.33,76.33l-152.62 0z"/>
  <path class="fil0 str0" d="M217.33 127.82c0,22.13 -17.93,40.05 -40.06,40.05 -22.12,0 -40.05,-17.92 -40.05,-40.05 0,-22.13 17.93,-40.07 40.05,-40.07 22.13,-0 40.06,17.94 40.06,40.07z"/>
  <path class="fil0 str0" d="M307.2 325.97l-240.3 0c-10.8,0 -19.57,-8.76 -19.57,-19.56l0 -277.06c0,-10.81 8.77,-19.57 19.57,-19.57l240.3 0 0 316.19z"/>
  <path class="fil0 str0" d="M47.33 299.29c-20.74,0 -37.55,-16.79 -37.55,-37.54 0,-9.03 3.19,-17.32 8.49,-23.79"/>
  <path class="fil0 str0" d="M47.33 203.42c-20.74,0 -37.55,-16.8 -37.55,-37.55 0,-9.03 3.19,-17.32 8.49,-23.79"/>
  <path class="fil0 str0" d="M47.33 107.55c-20.74,0 -37.55,-16.8 -37.55,-37.55 0,-9.03 3.19,-17.32 8.49,-23.79"/>
 </g>
</svg>
