<?xml version="1.0" encoding="utf-8"?>
<!-- Generator: Adobe Illustrator 25.2.3, SVG Export Plug-In . SVG Version: 6.00 Build 0)  -->
<svg version="1.1" id="Layer_1" xmlns="http://www.w3.org/2000/svg" xmlns:xlink="http://www.w3.org/1999/xlink" x="0px" y="0px"
	 viewBox="0 0 128 128" style="enable-background:new 0 0 128 128;" xml:space="preserve">
<style type="text/css">
	.st0{fill:#199CD8;}
	.st1{fill:#1B9DD9;}
</style>
<g id="_5">
	<g>
		<path class="st0" d="M64,34c2.5,0,5,0.3,7.4,0.9c0.7,0.2,1.4,0.4,2.1,0.7c3.9,1.4,7.3,3.8,10.1,6.8c3.2,3.5,5.5,7.7,6.6,12.3
			c0.4,1.6,0.6,3.3,0.5,5v0.2c0,0.6-0.5,1.1-1.1,1.2l-1.1,0.2c-0.1,0,0,0.1,0,0.4c0.3,1.2,0.6,2.4,0.8,3.6c0.3,2.6,0.3,5.3-0.1,7.9
			c-0.4,2.8-1.2,5.4-2.3,8c-0.4,0.9-1.5,3.3-1.5,3.3l0,0l-0.5-0.1c-0.2,0-0.3-0.1-0.5-0.1l0,0c0,0-0.1,0.4-0.2,0.8
			c-0.9,4.3-2.7,8.4-5.4,11.9c-0.9,1.2-1.9,2.3-3,3.3l-1.6,1.6l-0.4-0.4c-0.2-0.2-0.8-0.8-1.4-1.4c-0.8-0.8-1-1-1-1l0,0
			c-0.7,1.1-1.5,2.2-2.4,3.2c-0.5,0.7-1.5,1.9-2.2,2.7c-0.2,0.2-1.1,1.2-1.9,1.9c-0.5,0.5-1.3,0.5-1.8,0c-0.7-0.7-1.7-1.7-1.9-1.9
			c-0.8-0.8-1.7-2-2.2-2.7c-0.8-1.1-1.5-2.2-2.2-3.3l0,0c0,0-0.3,0.2-1,1c-0.6,0.6-1.2,1.2-1.4,1.4l-0.4,0.4l-1.7-1.6
			c-1.1-1-2.1-2.1-3-3.3c-2.7-3.5-4.6-7.6-5.4-11.9c-0.1-0.4-0.2-0.8-0.2-0.8l0,0c-0.2,0-0.3,0.1-0.5,0.1l-0.5,0.1l0,0
			c0,0-1.1-2.4-1.5-3.3c-1.1-2.6-1.9-5.2-2.3-8c-0.4-2.6-0.5-5.3-0.1-7.9c0.2-1.2,0.4-2.4,0.8-3.6c0.1-0.3,0.1-0.4,0-0.4l-1.1-0.2
			c-0.6-0.1-1.1-0.6-1.1-1.2v-0.2c-0.1-1.7,0.1-3.4,0.5-5c1.1-4.6,3.4-8.8,6.6-12.3c2.8-3,6.3-5.3,10.2-6.7c0.7-0.3,1.4-0.5,2.1-0.7
			C59,34.3,61.5,34,64,34 M64,29c-2.9,0-5.8,0.3-8.6,1c-0.9,0.2-1.9,0.5-2.8,0.9c-4.6,1.7-8.7,4.5-12,8.1c-3.8,4.1-6.5,9.1-7.8,14.5
			c-0.5,2-0.7,4.1-0.6,6.2v0.2c0,1.5,0.6,2.9,1.6,4l-0.1,0.6c-0.4,3.1-0.3,6.2,0.2,9.3c0.5,3.1,1.4,6.2,2.6,9.1
			c0.2,0.6,0.6,1.5,0.9,2.1c0.4,1.1,1.1,2.2,1.9,3.1c1.2,4.3,3.2,8.2,5.9,11.7c1.1,1.4,2.2,2.6,3.5,3.8l1.6,1.6
			c0.9,0.9,2.2,1.4,3.5,1.4c0.7,0,1.4-0.1,2-0.4c0.5,0.7,1.1,1.4,1.7,2c0.4,0.4,1.6,1.6,2.1,2.1c2.4,2.4,6.4,2.4,8.8,0
			c0.5-0.5,1.7-1.7,2.1-2.1c0.5-0.6,1.1-1.3,1.7-2c0.6,0.3,1.3,0.4,2,0.4c1.3,0,2.6-0.5,3.5-1.4l1.6-1.6c1.2-1.2,2.4-2.5,3.5-3.8
			c2.7-3.5,4.7-7.5,5.9-11.7c0.8-0.9,1.4-1.9,1.8-3c0.3-0.7,0.7-1.6,0.9-2.1c1.2-2.9,2.1-6,2.6-9.1c0.5-3.1,0.5-6.2,0.2-9.3
			l-0.1-0.6c1-1.1,1.5-2.5,1.6-4v-0.2c0.1-2.1-0.1-4.2-0.6-6.2c-1.3-5.4-4-10.5-7.8-14.5c-3.3-3.6-7.4-6.3-12-8.1
			c-0.9-0.4-1.8-0.6-2.8-0.9C69.8,29.3,66.9,29,64,29z"/>
	</g>
	<g>
		<path class="st0" d="M75.6,94.9c2.1-3.3,3.5-7,3.9-10.9c0-0.5,0.1-0.9,0.1-1.1v-0.2l-0.5-0.2c-1.6-0.8-3.1-1.8-4.5-3
			c-0.1-0.1-0.3-0.3-0.5-0.4c0,0-0.2,0.3-0.4,0.9c-0.8,2.4-1.9,4.7-3.1,6.9c-0.3,0.5-0.5,0.9-0.5,0.9c0.1,0.2,0.1,0.4,0.2,0.6
			c1,2.3,2.3,4.5,3.9,6.5c0.7,0.8,0.6,0.8,0.7,0.8S75.4,95.2,75.6,94.9L75.6,94.9z"/>
	</g>
	<g>
		<path class="st0" d="M65,102.9c1.5-2,2.7-4.2,3.6-6.5l0.1-0.4l-0.2-0.2c-0.1-0.1-0.3-0.4-0.4-0.7s-0.5-0.8-0.8-1.3l-0.5-0.9
			c0,0-0.6,0.7-1.4,1.5L64.1,96l-1.4-1.5c-0.8-0.8-1.4-1.5-1.4-1.5l-0.3,0.6c-0.2,0.3-0.6,1-0.9,1.6s-0.6,1-0.6,1l0.2,0.6
			c0.9,2.2,2.2,4.3,3.7,6.2c0.3,0.4,0.6,0.7,0.7,0.8l0.2,0.2l0.2-0.2C64.4,103.7,64.7,103.3,65,102.9L65,102.9z"/>
	</g>
	<g>
		<path class="st0" d="M82.8,77.1c0.5-1.6,0.8-3.2,1-4.9c0.2-1.3,0.2-2.5,0.2-3.8c0-1.7-0.2-3.4-0.6-5c-0.3-1.2-0.7-2.3-1.2-3.4
			l-0.7-0.1c-3.3-0.5-6.5-1.7-9.2-3.6L71.9,56c-0.1,0.1-0.2,0.3-0.2,0.5c-0.3,0.7-1,1.8-1.3,2.5l-0.4,0.7c0.1,1.2,0.4,2.3,0.9,3.4
			c2.1,6.5,5.8,11.6,10.2,14.1c0.5,0.3,1,0.6,1.6,0.8L82.8,77.1L82.8,77.1z"/>
	</g>
	<g>
		<path class="st0" d="M64.5,86.8c2.4-3.6,4.2-7.5,5.3-11.6c0.1-0.5,0.3-1,0.3-1.1c-0.1-0.3-0.2-0.5-0.4-0.7
			C68.2,71,67,68.4,66,65.7l-0.2-0.6l-1.1,1.2c-0.6,0.7-1.2,1.2-1.2,1.2S63,67,62.3,66.4l-1.2-1.2l-0.1,0.3
			c-0.4,1.4-0.6,1.9-0.9,2.8c-0.4,1.1-1,2.5-1.5,3.6c-0.4,0.8-1.2,2.3-1.3,2.4c0.3,1.5,0.8,3,1.5,4.4c1.2,2.8,2.7,5.5,4.5,8
			c0.3,0.4,0.6,0.8,0.6,0.8S63.9,87.6,64.5,86.8L64.5,86.8z"/>
	</g>
	<g>
		<path class="st0" d="M53.6,95.2c1.5-2,2.8-4.3,3.7-6.6c0.1-0.3,0.2-0.6,0.2-0.6s-0.2-0.4-0.5-0.8c-1.4-2.3-2.5-4.7-3.5-7.2
			c-0.2-0.7-0.2-0.7-0.8-0.1c-1.2,1.1-2.6,2.1-4,3c-0.3,0.1-0.5,0.3-0.8,0.5c0,0.1,0.2,1.6,0.4,2.5c0.7,3.2,2,6.3,3.8,9
			C52.9,96,53,96,53,96L53.6,95.2L53.6,95.2z"/>
	</g>
	<g>
		<path class="st0" d="M83.9,53.1c-1.3-4.2-3.7-7.9-6.8-10.9c-3.6-3-8.1-4.9-12.8-5.4c-0.9-0.2-1.9-0.1-2.8,0.1
			c-1.8,0.4-3.5,0.9-5.2,1.5c-2.5,1-4.9,2.4-7,4.2c-1.1,1.1-2.1,2.3-3,3.5c-1.4,1.9-2.5,4-3.2,6.2c-0.3,0.9-0.6,1.7-0.8,2.6
			c-0.1,0.3-0.1,0.3,1,0.2c2.8-0.3,5.6-1.3,7.9-3c1.5-1.2,2.9-2.5,4.1-4.1l1.9-2.1l0.6,2.5c0.2,1.3,0.6,2.6,1,3.8
			c0.8,1.8,1.8,3.5,3,5.1c0.5,0.7,1,1.4,1.6,2c0.5-0.6,1-1.3,1.5-2c1.2-1.7,2.2-3.6,2.9-5.6c0.2-0.6,0.3-1.2,1-4.6l0.3-1.4l2.2,2.3
			c1.1,1.3,2.3,2.4,3.7,3.4c2.5,1.8,5.5,2.8,8.6,2.9c0.2,0,0.4,0,0.6,0C84.2,54,84,53.6,83.9,53.1L83.9,53.1z"/>
	</g>
	<g>
		<path class="st0" d="M51.9,72.5c2-2.9,3.5-6.2,4.4-9.6c0.3-1,0.7-2.8,0.7-3c-0.1-0.2-0.2-0.3-0.3-0.5c-0.5-0.7-1.2-2-1.5-2.6
			c-0.1-0.2-0.2-0.4-0.3-0.5l-0.4,0.3c-1.6,1.2-3.4,2.2-5.2,2.9c-1.4,0.5-2.9,0.9-4.3,1.2h-0.3l-0.2,0.5c-0.9,2.4-1.3,5-1.2,7.6
			c0,2.5,0.4,5,1,7.3c0.2,0.9,0.7,2.4,0.8,2.4l0.4-0.2c1.5-0.8,2.9-1.8,4.1-3c0.9-0.9,1.7-1.9,2.5-3L51.9,72.5z"/>
	</g>
	<g>
		<path class="st1" d="M63.3,45.9c-1.4,0-2.5-1.1-2.5-2.5V21.3c0-1.4,1.1-2.5,2.5-2.5s2.5,1.1,2.5,2.5v22.1
			C65.8,44.8,64.6,45.9,63.3,45.9z"/>
	</g>
</g>
</svg>
