<?xml version="1.0" encoding="utf-8"?>
<!-- Generator: Adobe Illustrator 25.2.3, SVG Export Plug-In . SVG Version: 6.00 Build 0)  -->
<svg version="1.1" id="Layer_1" xmlns="http://www.w3.org/2000/svg" xmlns:xlink="http://www.w3.org/1999/xlink" x="0px" y="0px"
	 viewBox="0 0 128 128" style="enable-background:new 0 0 128 128;" xml:space="preserve">
<style type="text/css">
	.st0{fill:#1B9DD9;}
</style>
<g id="_7">
	<g>
		<path class="st0" d="M64,99.7c-17.6,0-31.9-14.3-31.9-31.9C32.1,50.3,46.4,36,64,36c17.6,0,31.8,14.3,31.8,31.9
			C95.8,85.4,81.6,99.7,64,99.7z M64,41c-14.8,0-26.9,12-26.9,26.9c0,14.8,12,26.9,26.9,26.9c14.8,0,26.8-12,26.8-26.9
			C90.8,53.1,78.8,41,64,41z"/>
	</g>
	<g>
		<path class="st0" d="M34.6,75.5c-0.6,0-1.3-0.2-1.8-0.7L22.7,64.5c-1-1-1-2.6,0-3.5c1-1,2.6-1,3.5,0l10.2,10.2c1,1,1,2.6,0,3.5
			C35.9,75.3,35.2,75.5,34.6,75.5z"/>
	</g>
	<g>
		<path class="st0" d="M34.6,75.5c-0.6,0-1.3-0.2-1.8-0.7c-1-1-1-2.6,0-3.5L43.1,61c1-1,2.6-1,3.5,0c1,1,1,2.6,0,3.5L36.4,74.8
			C35.9,75.3,35.2,75.5,34.6,75.5z"/>
	</g>
	<g>
		<path class="st0" d="M103.6,75.5c-0.6,0-1.3-0.2-1.8-0.7L91.6,64.5c-1-1-1-2.6,0-3.5c1-1,2.6-1,3.5,0l10.2,10.2c1,1,1,2.6,0,3.5
			C104.8,75.3,104.2,75.5,103.6,75.5z"/>
	</g>
	<g>
		<path class="st0" d="M83.2,75.5c-0.6,0-1.3-0.2-1.8-0.7c-1-1-1-2.6,0-3.5L91.6,61c1-1,2.6-1,3.5,0c1,1,1,2.6,0,3.5L84.9,74.8
			C84.4,75.3,83.8,75.5,83.2,75.5z"/>
	</g>
</g>
</svg>
