<?xml version="1.0" encoding="utf-8"?>
<!-- Generator: Adobe Illustrator 25.2.3, SVG Export Plug-In . SVG Version: 6.00 Build 0)  -->
<svg version="1.1" id="Layer_1" xmlns="http://www.w3.org/2000/svg" xmlns:xlink="http://www.w3.org/1999/xlink" x="0px" y="0px"
	 viewBox="0 0 128 128" style="enable-background:new 0 0 128 128;" xml:space="preserve">
<style type="text/css">
	.st0{fill:#1B9DD9;}
</style>
<g id="_5">
	<g>
		<path class="st0" d="M55.5,54.7c-2.1,0-3.9,1.7-3.9,3.9s1.7,3.9,3.9,3.9c2.1,0,3.9-1.7,3.9-3.9c0,0,0,0,0,0
			C59.4,56.4,57.7,54.7,55.5,54.7z"/>
	</g>
	<g>
		<path class="st0" d="M71.5,54.7c-2.1,0-3.9,1.7-3.9,3.9c0,2.1,1.7,3.9,3.9,3.9c2.1,0,3.9-1.7,3.9-3.9c0,0,0,0,0,0
			C75.4,56.4,73.6,54.7,71.5,54.7z"/>
	</g>
	<g id="line">
		<g>
			<ellipse transform="matrix(0.3327 -0.943 0.943 0.3327 -40.2137 110.9804)" class="st0" cx="58.3" cy="83.9" rx="4.1" ry="2.5"/>
		</g>
		<g>
			<ellipse transform="matrix(0.943 -0.3327 0.3327 0.943 -23.9052 28.1882)" class="st0" cx="70.4" cy="83.9" rx="2.5" ry="4.1"/>
		</g>
		<g>
			<path class="st0" d="M38.1,68.6c-1.3,0-2.6-0.3-3.9-1c-8.4-4.3-14.4-22-18.7-37.1c-0.4-1.2-0.6-2.2-0.8-2.6
				c-0.3-0.9-0.2-2,0.5-2.8c0.8-1,2.2-2.8,20.5-0.7c7.8,0.9,12,4.5,14.1,7.3c1.1,1.4,1.7,2.8,2.2,3.9c4.6-0.6,15.5-1.6,24.5,0.2
				c1.6-4.6,6.2-10.8,16.2-12c18.2-2.1,19.7-0.3,20.4,0.7c0.6,0.8,0.8,1.8,0.5,2.7c-0.1,0.4-0.4,1.4-0.8,2.6
				c-4.3,15-10.3,32.8-18.7,37.1c-2.2,1.1-4.6,1.3-6.8,0.4c-1.3-0.5-1.9-1.9-1.5-3.2c0.5-1.3,1.9-1.9,3.2-1.5
				c0.9,0.3,1.8,0.3,2.8-0.2c5-2.5,10.5-14,16.2-34c0.1-0.2,0.1-0.4,0.2-0.6c-2.9-0.1-8.8,0.2-15,0.9c-11.1,1.3-12.4,10-12.4,10.3
				l-0.4,2.8l-2.8-0.8c-10.7-3-26.9-0.4-27-0.3l-2.5,0.4l-0.4-2.5c0-0.3-1.4-8.1-12.5-9.4c-6.2-0.7-12.1-1.1-15-0.9
				c0.1,0.2,0.1,0.4,0.2,0.6c5.7,20,11.2,31.4,16.2,34c1,0.5,1.9,0.6,2.8,0.2c1.3-0.5,2.7,0.2,3.2,1.5c0.5,1.3-0.2,2.7-1.5,3.2
				C40,68.5,39,68.6,38.1,68.6z M19.4,26.4C19.4,26.4,19.4,26.4,19.4,26.4C19.4,26.4,19.4,26.4,19.4,26.4z"/>
		</g>
		<g>
			<path class="st0" d="M43.9,48.9c-1.2,0-2.2-0.8-2.4-2c-0.1-0.4-2-8.8-9.6-10.8c-1.3-0.4-2.1-1.7-1.8-3.1c0.4-1.3,1.7-2.1,3.1-1.8
				c10.6,2.8,13.1,14.1,13.2,14.6c0.3,1.4-0.6,2.7-1.9,3C44.2,48.9,44,48.9,43.9,48.9z"/>
		</g>
		<g>
			<path class="st0" d="M83.1,48.9c-0.2,0-0.3,0-0.5-0.1c-1.4-0.3-2.2-1.6-1.9-3c0.1-0.5,2.6-11.7,13.2-14.6
				c1.3-0.4,2.7,0.4,3.1,1.8s-0.4,2.7-1.8,3.1c-7.6,2-9.6,10.7-9.6,10.8C85.3,48.1,84.2,48.9,83.1,48.9z"/>
		</g>
	</g>
	<g>
		<path class="st0" d="M64,107.5c-18.2,0-31.4-12-31.4-28.5c0-4.9,1.2-9.8,3.4-14.1c0.6-1.2,2.1-1.7,3.4-1.1
			c1.2,0.6,1.7,2.1,1.1,3.4c-1.8,3.7-2.8,7.8-2.8,11.9c0,13.8,10.9,23.5,26.4,23.5S90.4,92.9,90.4,79c0-4.3-1-8.5-3-12.3
			c-0.6-1.2-0.2-2.7,1.1-3.4c1.2-0.6,2.7-0.2,3.4,1.1c2.4,4.5,3.6,9.5,3.6,14.6C95.4,95.5,82.2,107.5,64,107.5z"/>
	</g>
	<g>
		<path class="st0" d="M64,75.3c7.2,0,13,4.3,13,9.7s-5.8,7.7-13,7.7S51,90.4,51,85S56.8,75.3,64,75.3 M64,70.3
			c-10.1,0-18,6.5-18,14.7c0,6.2,4.7,12.7,18,12.7S82,91.2,82,85C82,76.7,74.1,70.3,64,70.3z"/>
	</g>
</g>
</svg>
