<?xml version="1.0" encoding="utf-8"?>
<!-- Generator: Adobe Illustrator 25.2.3, SVG Export Plug-In . SVG Version: 6.00 Build 0)  -->
<svg version="1.1" id="Layer_1" xmlns="http://www.w3.org/2000/svg" xmlns:xlink="http://www.w3.org/1999/xlink" x="0px" y="0px"
	 viewBox="0 0 128 128" style="enable-background:new 0 0 128 128;" xml:space="preserve">
<style type="text/css">
	.st0{fill:#1B9DD9;}
</style>
<g id="_3">
	<g>
		<path class="st0" d="M64.5,61.6c-1.1,0-2-0.9-2-2V43.1c0-1.1,0.9-2,2-2s2,0.9,2,2v16.5C66.5,60.7,65.7,61.6,64.5,61.6z"/>
	</g>
	<g>
		<path class="st0" d="M72.8,53.3H56.3c-1.1,0-2-0.9-2-2s0.9-2,2-2h16.5c1.1,0,2,0.9,2,2S73.9,53.3,72.8,53.3z"/>
	</g>
	<g>
		<polygon class="st0" points="102.1,109.2 75,109.2 75,104.2 97.1,104.2 97.1,51 102.1,51 		"/>
	</g>
	<g>
		<path class="st0" d="M105.6,58.5c-0.6,0-1.1-0.2-1.6-0.6L64,24.6L24,57.9c-1.1,0.9-2.6,0.7-3.5-0.3c-0.9-1.1-0.7-2.6,0.3-3.5
			L64,18l43.2,36c1.1,0.9,1.2,2.5,0.3,3.5C107,58.2,106.3,58.5,105.6,58.5z"/>
	</g>
	<g>
		<polygon class="st0" points="54.1,109.2 25.9,109.2 25.9,51 30.9,51 30.9,104.2 54.1,104.2 		"/>
	</g>
	<g>
		<path class="st0" d="M77.5,109.2h-5V78.8c-0.6-0.6-3.4-1.6-7.9-1.6s-7.3,1-8,1.6v30.4h-5V78.6c0-4.7,6.7-6.4,13-6.4
			c6.3,0,12.9,1.7,12.9,6.4V109.2z"/>
	</g>
</g>
</svg>
