<?xml version="1.0" encoding="utf-8"?>
<!-- Generator: Adobe Illustrator 25.2.3, SVG Export Plug-In . SVG Version: 6.00 Build 0)  -->
<svg version="1.1" id="Layer_1" xmlns="http://www.w3.org/2000/svg" xmlns:xlink="http://www.w3.org/1999/xlink" x="0px" y="0px"
	 viewBox="0 0 128 128" style="enable-background:new 0 0 128 128;" xml:space="preserve">
<style type="text/css">
	.st0{fill:#1B9DD9;}
</style>
<g id="_2">
	<g>
		<path class="st0" d="M83.7,79.8c-2.5,0-3.9-0.7-5-1.3c-0.8-0.4-1.4-0.7-2.7-0.7s-1.9,0.3-2.7,0.7c-1.1,0.6-2.5,1.3-5,1.3
			c-2.5,0-3.9-0.7-5-1.3c-0.8-0.4-1.4-0.7-2.7-0.7c-1.3,0-1.9,0.3-2.7,0.7c-1.1,0.6-2.5,1.3-5,1.3c-2.5,0-3.9-0.7-5-1.3
			c-0.8-0.4-1.4-0.7-2.7-0.7c-1.4,0-2.5-1.1-2.5-2.5s1.1-2.5,2.5-2.5c2.5,0,3.9,0.7,5,1.3c0.8,0.4,1.4,0.7,2.7,0.7
			c1.3,0,1.9-0.3,2.7-0.7c1.1-0.6,2.5-1.3,5-1.3c2.5,0,3.9,0.7,5,1.3c0.8,0.4,1.4,0.7,2.7,0.7s1.9-0.3,2.7-0.7
			c1.1-0.6,2.5-1.3,5-1.3s3.9,0.7,5,1.3c0.8,0.4,1.4,0.7,2.7,0.7c1.4,0,2.5,1.1,2.5,2.5S85.1,79.8,83.7,79.8z"/>
	</g>
	<g>
		<path class="st0" d="M84.7,103.5c0,0-0.1,0-0.1,0H43.3c-5.3,0-9.9-3.8-11.4-9.5c-1-4.2-0.1-8.6,2.5-12
			c6.9-9.4,18.6-27.6,18.7-30.8l0.2-22.9c0-1,0.5-2,1.5-2.5c2.8-1.7,15.7-1.7,18.4,0c0.9,0.6,1.5,1.5,1.5,2.5l0.2,22.9
			C75,54.3,86.4,72.1,93.6,82c2.6,3.4,3.5,7.7,2.5,11.9l0,0C94.6,99.7,90,103.5,84.7,103.5z M58.3,29.9l-0.2,21.4
			c0,1.1,0,3.6-8.3,16.8c-4,6.4-8.9,13.5-11.5,17c-1.7,2.2-2.3,5.1-1.6,7.8c0.7,2.8,3.1,5.7,6.6,5.7h41.3c3.5,0,5.8-2.8,6.6-5.7
			c0.6-2.7,0.1-5.5-1.6-7.7c-0.2-0.3-19.8-27.5-19.8-33.8l-0.2-21.3C67,29.4,61,29.4,58.3,29.9z M93.7,93.3L93.7,93.3L93.7,93.3z"/>
	</g>
	<g>
		<path class="st0" d="M85.3,76.9c4.1,5.4,7.6,9.6,7.6,9.6c3.4,6.5-1.1,14.5-8.3,14.5H43.4c-7.1,0-11.7-8-8.3-14.5
			c0,0,3.7-4.5,8-10.2L85.3,76.9z"/>
	</g>
</g>
</svg>
