<?xml version="1.0" encoding="utf-8"?>
<!-- Generator: Adobe Illustrator 25.2.3, SVG Export Plug-In . SVG Version: 6.00 Build 0)  -->
<svg version="1.1" id="Layer_1" xmlns="http://www.w3.org/2000/svg" xmlns:xlink="http://www.w3.org/1999/xlink" x="0px" y="0px"
	 viewBox="0 0 128 128" style="enable-background:new 0 0 128 128;" xml:space="preserve">
<style type="text/css">
	.st0{fill:#1B9DD9;}
</style>
<g id="_4">
	<g>
		<path class="st0" d="M68.8,92.6c-11.1,0-22.2-3.8-31.1-11.1c-4.4,5-10.5,8.3-17.1,9.1l-3.8,0.5l-1-3.7c-0.6-2.2-0.9-4.5-0.9-6.8
			c0-6.1,2-11.9,5.7-16.6c-3.7-4.7-5.7-10.5-5.7-16.6c0-2.3,0.3-4.6,0.9-6.8l1-3.7l3.8,0.5c6.7,0.8,12.8,4.1,17.1,9.1
			c8.7-7.2,19.7-11.1,31.1-11.1c0,0,0,0,0,0c18.4,0,35.1,10.2,43.6,26.6l1.1,2l-1.1,2.1c-4.1,7.9-10.2,14.5-17.7,19.2
			C86.7,90.2,77.8,92.6,68.8,92.6z M36.9,74.2l2.1,1.9C53.5,89.4,75.3,91.4,92,81c6.7-4.2,12.1-10,15.8-17
			c-7.6-14.6-22.5-23.7-39-23.7c-0.1,0-0.1,0-0.2,0c-11,0-21.5,4.1-29.6,11.6l-2.1,1.9l-1.6-2.4c-3.5-5-8.9-8.3-14.8-9.2
			c-0.4,1.7-0.6,3.4-0.6,5.1c0,5.5,2.1,10.8,5.9,14.9l1.6,1.7l-1.6,1.7c-3.8,4.1-5.8,9.4-5.9,14.9c0,1.7,0.2,3.4,0.6,5.1
			c6-0.9,11.4-4.2,14.8-9.2L36.9,74.2z"/>
	</g>
	<g>
		<path class="st0" d="M94,60.1c-2.1,0-3.9,1.7-3.9,3.8s1.7,3.9,3.8,3.9c2.1,0,3.9-1.7,3.9-3.8c0,0,0,0,0,0
			C97.8,61.9,96.1,60.1,94,60.1z"/>
	</g>
	<g>
		<path class="st0" d="M81.4,81.5c-0.7,0-1.4-0.3-1.8-0.8c-4.8-5.3-7.4-12.1-7.1-18.8c0.3-5.8,2.7-11,6.8-14.8
			c1-0.9,2.6-0.9,3.5,0.2c0.9,1,0.9,2.6-0.2,3.5c-3.1,2.8-4.9,6.8-5.1,11.3c-0.3,5.4,1.8,10.9,5.8,15.2c0.9,1,0.9,2.6-0.2,3.5
			C82.6,81.3,82,81.5,81.4,81.5z"/>
	</g>
</g>
</svg>
