<?xml version="1.0" encoding="utf-8"?>
<!-- Generator: Adobe Illustrator 25.2.3, SVG Export Plug-In . SVG Version: 6.00 Build 0)  -->
<svg version="1.1" id="_1" xmlns="http://www.w3.org/2000/svg" xmlns:xlink="http://www.w3.org/1999/xlink" x="0px" y="0px"
	 viewBox="0 0 128 128" style="enable-background:new 0 0 128 128;" xml:space="preserve">
<style type="text/css">
	.st0{fill:#1B9DD9;}
</style>
<g>
	<path class="st0" d="M71.4,109.2H56.6c-8.5,0-15.4-6.9-15.4-15.4l0.1-33.5c0-2.6,0.1-5.2,0.4-7.7c0.4-4.4,2.5-6.4,4.3-8.2
		c2.4-2.4,5.2-5.2,5.2-16.4h5c0,13.3-3.7,16.9-6.7,19.9c-1.6,1.6-2.6,2.6-2.9,5.2c-0.2,2.4-0.4,4.8-0.4,7.2l-0.1,33.5
		c0,5.7,4.7,10.4,10.4,10.4h14.8c5.7,0,10.4-4.7,10.4-10.4l-0.1-33.5c0-2.4-0.1-4.9-0.4-7.2c-0.3-2.6-1.2-3.6-2.8-5.2
		c-3-3-6.6-6.6-6.6-19.9h5c0,11.1,2.7,13.9,5.2,16.3c1.8,1.8,3.8,3.9,4.3,8.2c0.3,2.5,0.4,5.1,0.4,7.7l0.1,33.5
		C86.8,102.3,79.9,109.2,71.4,109.2z"/>
</g>
<g>
	<path class="st0" d="M78,23.5H50c-1.4,0-2.5-1.1-2.5-2.5s1.1-2.5,2.5-2.5H78c1.4,0,2.5,1.1,2.5,2.5S79.4,23.5,78,23.5z"/>
</g>
<g>
	<path class="st0" d="M84.1,58.4c-2.5,0-3.9-0.7-5-1.3c-0.8-0.4-1.4-0.7-2.7-0.7s-1.9,0.3-2.7,0.7c-1.1,0.6-2.5,1.3-5,1.3
		s-3.9-0.7-5-1.3c-0.8-0.4-1.4-0.7-2.7-0.7s-1.9,0.3-2.7,0.7c-1.1,0.6-2.5,1.3-5,1.3c-2.5,0-3.9-0.7-5-1.3c-0.8-0.4-1.4-0.7-2.7-0.7
		c-1.4,0-2.5-1.1-2.5-2.5s1.1-2.5,2.5-2.5c2.5,0,3.9,0.7,5,1.3c0.8,0.4,1.4,0.7,2.7,0.7s1.9-0.3,2.7-0.7c1.1-0.6,2.5-1.3,5-1.3
		s3.9,0.7,5,1.3c0.8,0.4,1.4,0.7,2.7,0.7s1.9-0.3,2.7-0.7c1.1-0.6,2.5-1.3,5-1.3c2.5,0,3.9,0.7,5,1.3c0.8,0.4,1.4,0.7,2.7,0.7
		c1.4,0,2.5,1.1,2.5,2.5S85.5,58.4,84.1,58.4z"/>
</g>
</svg>
