<?xml version="1.0" encoding="utf-8"?>
<!-- Generator: Adobe Illustrator 25.2.3, SVG Export Plug-In . SVG Version: 6.00 Build 0)  -->
<svg version="1.1" id="Layer_1" xmlns="http://www.w3.org/2000/svg" xmlns:xlink="http://www.w3.org/1999/xlink" x="0px" y="0px"
	 viewBox="0 0 128 128" style="enable-background:new 0 0 128 128;" xml:space="preserve">
<style type="text/css">
	.st0{fill:#009FE3;}
</style>
<g id="_7">
	<g>
		<path class="st0" d="M76.7,109.2H51.3c-16.2,0-29.5-13.2-29.5-29.5V48.2c0-16.2,13.2-29.5,29.5-29.5h25.3
			c16.2,0,29.5,13.2,29.5,29.5v31.5C106.1,96,92.9,109.2,76.7,109.2z M51.3,23.8c-13.5,0-24.5,11-24.5,24.5v31.5
			c0,13.5,11,24.5,24.5,24.5h25.3c13.5,0,24.5-11,24.5-24.5V48.2c0-13.5-11-24.5-24.5-24.5H51.3z"/>
	</g>
	<g>
		<path class="st0" d="M64,88.2L64,88.2c-9.1,0-16.6-7.5-16.6-16.6c0-7.6,11.8-25.8,15.4-31.2l1.2-1.9l1.2,1.9
			c3.6,5.4,15.4,23.5,15.4,31.2C80.6,80.8,73.1,88.2,64,88.2z M64,44c-6.5,10-13.6,22.5-13.6,27.6c0,7.5,6.1,13.6,13.6,13.6
			c7.5,0,13.6-6.1,13.6-13.6C77.6,66.5,70.5,54,64,44z"/>
	</g>
	<g>
		<path class="st0" d="M64,82.2C64,82.2,64,82.2,64,82.2c-5.6,0-10.1-4.6-10.1-10.1c0-0.8,0.7-1.5,1.5-1.5c0,0,0,0,0,0
			c0.8,0,1.5,0.7,1.5,1.5c0,3.9,3.2,7.1,7.1,7.1c0.8,0,1.5,0.7,1.5,1.5S64.8,82.2,64,82.2z"/>
	</g>
</g>
</svg>
