<?xml version="1.0" encoding="UTF-8"?>
<!DOCTYPE svg PUBLIC "-//W3C//DTD SVG 1.1//EN" "http://www.w3.org/Graphics/SVG/1.1/DTD/svg11.dtd">
<!-- Creator: CorelDRAW -->
<svg xmlns="http://www.w3.org/2000/svg" xml:space="preserve" width="38.4784mm" height="38.4784mm" version="1.1" style="shape-rendering:geometricPrecision; text-rendering:geometricPrecision; image-rendering:optimizeQuality; fill-rule:evenodd; clip-rule:evenodd"
viewBox="0 0 3295.79 3295.79"
 xmlns:xlink="http://www.w3.org/1999/xlink"
 xmlns:xodm="http://www.corel.com/coreldraw/odm/2003">
 <defs>
  <style type="text/css">
   <![CDATA[
    .fil0 {fill:white}
   ]]>
  </style>
 </defs>
 <g id="Warstwa_x0020_1">
  <metadata id="CorelCorpID_0Corel-Layer"/>
  <path class="fil0" d="M1647.89 0c910.11,0 1647.89,737.79 1647.89,1647.89 0,910.11 -737.79,1647.89 -1647.89,1647.89 -910.11,0 -1647.89,-737.79 -1647.89,-1647.89 0,-910.11 737.79,-1647.89 1647.89,-1647.89zm807.63 1076.26c89.16,-77.15 223.98,-67.41 301.13,21.75 77.15,89.16 67.41,223.98 -21.75,301.13l-947.32 820.4c-81.93,70.89 -202.42,68.41 -281.28,-1.64l-945.43 -818.76c-89.16,-77.15 -98.89,-211.97 -21.75,-301.13 77.15,-89.16 211.97,-98.89 301.13,-21.75l807.63 699.43 807.63 -699.43z"/>
 </g>
</svg>
