<?xml version="1.0" encoding="utf-8"?>
<!-- Generator: Adobe Illustrator 25.2.3, SVG Export Plug-In . SVG Version: 6.00 Build 0)  -->
<svg version="1.1" id="Layer_1" xmlns="http://www.w3.org/2000/svg" xmlns:xlink="http://www.w3.org/1999/xlink" x="0px" y="0px"
	 viewBox="0 0 128 128" style="enable-background:new 0 0 128 128;" xml:space="preserve">
<style type="text/css">
	.st0{fill:#009FE3;}
</style>
<g id="_3">
	<g>
		<path class="st0" d="M29,105.6c-1.4,0-2.5-1.1-2.5-2.5V66c0-1.4,1.1-2.5,2.5-2.5s2.5,1.1,2.5,2.5v37.1
			C31.5,104.5,30.3,105.6,29,105.6z"/>
	</g>
	<g>
		<path class="st0" d="M99,105.6c-1.4,0-2.5-1.1-2.5-2.5V66c0-1.4,1.1-2.5,2.5-2.5s2.5,1.1,2.5,2.5v37.1
			C101.5,104.5,100.4,105.6,99,105.6z"/>
	</g>
</g>
<g id="_4">
	<g>
		<path class="st0" d="M29,90.6C14.3,90.6,2.3,78.7,2.3,64c0-14.7,11.9-26.6,26.6-26.6S55.6,49.3,55.6,64
			C55.6,78.7,43.6,90.6,29,90.6z M29,42.4C17,42.4,7.3,52.1,7.3,64C7.3,75.9,17,85.6,29,85.6S50.6,75.9,50.6,64
			C50.6,52.1,40.9,42.4,29,42.4z"/>
	</g>
	<g>
		<path class="st0" d="M99,90.6c-14.7,0-26.6-11.9-26.6-26.6c0-14.7,11.9-26.6,26.6-26.6s26.6,11.9,26.6,26.6
			C125.7,78.7,113.7,90.6,99,90.6z M99,42.4c-11.9,0-21.6,9.7-21.6,21.6c0,11.9,9.7,21.6,21.6,21.6s21.6-9.7,21.6-21.6
			C120.7,52.1,111,42.4,99,42.4z"/>
	</g>
	<g>
		<path class="st0" d="M60,37.4H49c-1.4,0-2.5,1.1-2.5,2.5s1.1,2.5,2.5,2.5h11c1.4,0,2.5-1.1,2.5-2.5S61.4,37.4,60,37.4z"/>
	</g>
	<g>
		<path class="st0" d="M79,37.4H68c-1.4,0-2.5,1.1-2.5,2.5s1.1,2.5,2.5,2.5h11c1.4,0,2.5-1.1,2.5-2.5S80.4,37.4,79,37.4z"/>
	</g>
	<g>
		<path class="st0" d="M60,85.6H49c-1.4,0-2.5,1.1-2.5,2.5s1.1,2.5,2.5,2.5h11c1.4,0,2.5-1.1,2.5-2.5S61.4,85.6,60,85.6z"/>
	</g>
	<g>
		<path class="st0" d="M79,85.6H68c-1.4,0-2.5,1.1-2.5,2.5s1.1,2.5,2.5,2.5h11c1.4,0,2.5-1.1,2.5-2.5S80.4,85.6,79,85.6z"/>
	</g>
	<g>
		<circle class="st0" cx="29" cy="64" r="6.9"/>
	</g>
	<g>
		<circle class="st0" cx="99" cy="64" r="6.9"/>
	</g>
</g>
</svg>
