<?xml version="1.0" encoding="utf-8"?>
<!-- Generator: Adobe Illustrator 25.2.3, SVG Export Plug-In . SVG Version: 6.00 Build 0)  -->
<svg version="1.1" id="Layer_1" xmlns="http://www.w3.org/2000/svg" xmlns:xlink="http://www.w3.org/1999/xlink" x="0px" y="0px"
	 viewBox="0 0 128 128" style="enable-background:new 0 0 128 128;" xml:space="preserve">
<style type="text/css">
	.st0{fill:#009FE3;}
	.st1{fill-rule:evenodd;clip-rule:evenodd;fill:#009FE3;}
</style>
<g id="_3">
	<g>
		<path class="st0" d="M83.6,105.6v-5c20.2,0,36.6-16.4,36.6-36.6c0-20.2-16.4-36.6-36.6-36.6v-5c23,0,41.6,18.7,41.6,41.6
			C125.2,87,106.5,105.6,83.6,105.6z"/>
	</g>
	<g>
		<path class="st0" d="M44.4,105.6C21.5,105.6,2.8,87,2.8,64c0-23,18.7-41.6,41.6-41.6S86.1,41,86.1,64
			C86.1,87,67.4,105.6,44.4,105.6z M44.4,27.4C24.2,27.4,7.8,43.8,7.8,64c0,20.2,16.4,36.6,36.6,36.6S81.1,84.2,81.1,64
			C81.1,43.8,64.6,27.4,44.4,27.4z"/>
	</g>
	<g>
		<path class="st1" d="M44.4,70.9c-3.8,0-6.9-3.1-6.9-6.9c0-3.8,3.1-6.9,6.9-6.9c3.8,0,6.9,3.1,6.9,6.9
			C51.3,67.8,48.2,70.9,44.4,70.9 M66,74.9l-4.4-2.5l4.2-2.4c0.5-0.3,0.6-0.9,0.4-1.4c0,0,0,0,0,0l-1-1.7c-0.3-0.5-0.9-0.6-1.4-0.4
			c0,0,0,0,0,0L57.5,70l-2.8-2.4l6.1-2.7c0.4-0.2,0.6-0.5,0.6-0.9c0-0.4-0.2-0.8-0.6-0.9l-6.2-2.7l2.8-1.6l6.2,3.6
			c0.5,0.3,1.1,0.1,1.4-0.4c0,0,0,0,0,0l1-1.7c0.3-0.5,0.1-1.1-0.4-1.4c0,0,0,0,0,0l-4.2-2.4l4.5-2.5c0.5-0.3,0.6-0.9,0.4-1.4
			c0,0,0,0,0,0l-1-1.7c-0.3-0.5-0.9-0.6-1.4-0.4c0,0,0,0,0,0L59.5,53v-4.9c0-0.6-0.4-1-1-1h-2c-0.6,0-1,0.4-1,1v7.2L52.4,57v-5.9
			c0.1-0.5-0.3-1-0.9-1.1c-0.3,0-0.5,0-0.7,0.2l-4.4,3v-4l6.2-3.6c0.5-0.3,0.6-0.9,0.3-1.4l-1-1.7c-0.3-0.5-0.9-0.6-1.4-0.4
			l-4.2,2.4V41c0-0.6-0.4-1-1-1h-2c-0.6,0-1,0.4-1,1v3.6l-4.2-2.5c-0.5-0.3-1.1-0.1-1.4,0.4c0,0,0,0,0,0l-1,1.7
			c-0.3,0.5-0.1,1.1,0.4,1.4c0,0,0,0,0,0l6.2,3.6v4.1l-4.4-3c-0.2-0.1-0.4-0.2-0.6-0.2l0,0c-0.6,0-1,0.4-1,1v6.2l-3.1-2.7v-7.2
			c0-0.6-0.4-1-1-1h-2c-0.6,0-1,0.4-1,1v4.9l-4.5-2.6c-0.5-0.3-1.1-0.1-1.4,0.4c0,0,0,0,0,0l-1,1.7c-0.3,0.5-0.1,1.1,0.4,1.4
			c0,0,0,0,0,0l4.4,2.5l-4.2,2.4c-0.5,0.3-0.6,0.9-0.4,1.4c0,0,0,0,0,0l1,1.7c0.3,0.5,0.9,0.6,1.4,0.4c0,0,0,0,0,0l6.1-3.6l2.8,2.4
			L28,63.1c-0.4,0.2-0.6,0.5-0.6,0.9c0,0.4,0.2,0.8,0.6,0.9l6.2,2.7l-2.8,1.6l-6.2-3.6c-0.5-0.3-1.1-0.1-1.4,0.4c0,0,0,0,0,0l-1,1.7
			c-0.3,0.5-0.1,1.1,0.4,1.4c0,0,0,0,0,0l4.2,2.4l-4.4,2.5c-0.5,0.3-0.6,0.9-0.4,1.4c0,0,0,0,0,0l1,1.7c0.3,0.5,0.9,0.6,1.4,0.4
			c0,0,0,0,0,0l4.4-2.6v4.9c0,0.6,0.4,1,1,1h2c0.6,0,1-0.4,1-1v-7.2l3.1-1.7v6c-0.1,0.5,0.3,1,0.9,1.1c0.3,0,0.5,0,0.7-0.2l4.4-3V79
			l-6.2,3.6c-0.5,0.3-0.7,0.9-0.4,1.4c0,0,0,0,0,0l1,1.7c0.3,0.5,0.9,0.6,1.4,0.4c0,0,0,0,0,0l4.2-2.4V87c0,0.6,0.4,1,1,1h2
			c0.6,0,1-0.4,1-1v-3.5l4.2,2.4c0.5,0.3,1.1,0.1,1.3-0.4l1-1.7c0.3-0.5,0.1-1.1-0.4-1.4c0,0,0,0,0,0l-6.2-3.6v-4.1l4.4,3
			c0.2,0.1,0.4,0.2,0.6,0.2l0,0c0.6,0,1-0.4,1-1v-6.2l3.1,2.7v7.2c0,0.6,0.4,1,1,1h2c0.6,0,1-0.4,1-1v-4.9l4.6,2.6
			c0.5,0.3,1,0.1,1.3-0.3l1-1.7C66.6,75.8,66.5,75.2,66,74.9C66,74.9,66,74.9,66,74.9L66,74.9z"/>
	</g>
	<g>
		<rect x="44.4" y="22.4" class="st0" width="39.1" height="5"/>
	</g>
	<g>
		<rect x="44.4" y="100.6" class="st0" width="39.1" height="5"/>
	</g>
</g>
</svg>
