<svg xmlns="http://www.w3.org/2000/svg" viewBox="0 0 128 128"><defs><style>.cls-1{fill:#009fe3;fill-rule:evenodd;}</style></defs><title>piktogramy</title><g id="_2" data-name="2"><path class="cls-1" d="M65.14,74.93A10.93,10.93,0,1,1,76.07,64,10.93,10.93,0,0,1,65.14,74.93m38.33-18.82a4.11,4.11,0,0,0-1.5-2.49Q92,45.42,74.41,54.73a12.72,12.72,0,0,0-2.52-2Q84,41.86,94,43.61a2.19,2.19,0,0,0,2.11-3.49,38.53,38.53,0,0,0-9.48-8.8,4.08,4.08,0,0,0-2.82-.7Q71,31.84,65.14,50.88a12.6,12.6,0,0,0-3.18.4Q62.85,35,71.15,29.15a2.18,2.18,0,0,0-1-3.95,38.16,38.16,0,0,0-12.92.48,4,4,0,0,0-2.49,1.49q-8.2,9.94,1.11,27.56a12.72,12.72,0,0,0-2,2.52Q43,45.11,44.75,35.11A2.19,2.19,0,0,0,41.26,33a38.31,38.31,0,0,0-8.8,9.47,4.09,4.09,0,0,0-.7,2.82Q33,58.13,52,64a12.6,12.6,0,0,0,.4,3.18Q36.13,66.3,30.29,58a2.18,2.18,0,0,0-3.95,1,38.41,38.41,0,0,0,.47,12.92,4.11,4.11,0,0,0,1.5,2.49q9.94,8.2,27.56-1.11a12.72,12.72,0,0,0,2.52,2Q46.26,86.14,36.25,84.39a2.19,2.19,0,0,0-2.11,3.49,38.34,38.34,0,0,0,9.48,8.8,4.09,4.09,0,0,0,2.82.7q12.83-1.22,18.7-20.26a12.66,12.66,0,0,0,3.18-.4Q67.44,93,59.13,98.85a2.19,2.19,0,0,0,1,4A38.16,38.16,0,0,0,73,102.32a4,4,0,0,0,2.49-1.49q8.2-9.94-1.11-27.56a12.72,12.72,0,0,0,2-2.52q10.89,12.14,9.15,22.14A2.18,2.18,0,0,0,89,95a38.53,38.53,0,0,0,8.8-9.48,4.08,4.08,0,0,0,.7-2.82Q97.31,69.88,78.26,64a13.12,13.12,0,0,0-.39-3.18Q94.16,61.71,100,70a2.19,2.19,0,0,0,4-1A38.68,38.68,0,0,0,103.47,56.11Z"/></g></svg>