<?xml version="1.0" encoding="utf-8"?>
<!-- Generator: Adobe Illustrator 25.2.3, SVG Export Plug-In . SVG Version: 6.00 Build 0)  -->
<svg version="1.1" id="Layer_1" xmlns="http://www.w3.org/2000/svg" xmlns:xlink="http://www.w3.org/1999/xlink" x="0px" y="0px"
	 viewBox="0 0 128 128" style="enable-background:new 0 0 128 128;" xml:space="preserve">
<style type="text/css">
	.st0{fill:#009FE3;}
</style>
<g id="_9">
	<g>
		<path class="st0" d="M35.4,48.4l-5,0c0-18.5,15.1-33.6,33.6-33.6c0,0,0,0,0,0c18.5,0,33.6,15.1,33.6,33.6l-5,0
			c0-15.8-12.8-28.6-28.6-28.6c0,0,0,0,0,0c-7.6,0-14.8,3-20.2,8.4C38.3,33.6,35.4,40.8,35.4,48.4z"/>
	</g>
	<g>
		<path class="st0" d="M64,113.2C64,113.2,64,113.2,64,113.2c-18.5,0-33.6-15.1-33.6-33.6h5c0,15.8,12.8,28.6,28.6,28.6c0,0,0,0,0,0
			c7.6,0,14.8-3,20.2-8.4c5.4-5.4,8.4-12.6,8.4-20.2h5c0,9-3.5,17.4-9.9,23.8C81.4,109.7,73,113.2,64,113.2z"/>
	</g>
	<g>
		<rect x="30.4" y="48.4" class="st0" width="5" height="31.1"/>
	</g>
	<g>
		<rect x="92.6" y="48.4" class="st0" width="5" height="31.1"/>
	</g>
	<g>
		<path class="st0" d="M26.6,113.2c-0.2,0-0.3,0-0.5,0c-1.4-0.3-2.2-1.6-2-2.9l6.3-31.1c0.3-1.4,1.6-2.2,2.9-2
			c1.4,0.3,2.2,1.6,2,2.9L29,111.2C28.8,112.4,27.8,113.2,26.6,113.2z"/>
	</g>
	<g>
		<path class="st0" d="M101.4,113.2c-1.2,0-2.2-0.8-2.4-2l-6.3-31.1c-0.3-1.4,0.6-2.7,2-2.9c1.3-0.3,2.7,0.6,2.9,2l6.3,31.1
			c0.3,1.4-0.6,2.7-2,2.9C101.7,113.2,101.6,113.2,101.4,113.2z"/>
	</g>
	<g>
		<path class="st0" d="M64,80.6c-9.1,0-16.6-7.4-16.6-16.6S54.9,47.4,64,47.4S80.6,54.9,80.6,64S73.1,80.6,64,80.6z M64,50.4
			c-7.5,0-13.6,6.1-13.6,13.6S56.5,77.6,64,77.6S77.6,71.5,77.6,64S71.5,50.4,64,50.4z"/>
	</g>
	<g>
		<path class="st0" d="M64,65c-0.3,0-0.5-0.1-0.7-0.3c-0.4-0.4-0.4-1,0-1.4l10.5-10.5c0.4-0.4,1-0.4,1.4,0s0.4,1,0,1.4L64.7,64.7
			C64.5,64.9,64.3,65,64,65z"/>
	</g>
	<g>
		<path class="st0" d="M79.1,65H48.9c-0.6,0-1-0.4-1-1s0.4-1,1-1h30.1c0.6,0,1,0.4,1,1S79.6,65,79.1,65z"/>
	</g>
	<g>
		<path class="st0" d="M54.1,64.3c-0.6,0-1-0.4-1-1c0-0.7,0.1-1.5,0.2-2.2c0.1-0.5,0.6-0.9,1.2-0.8c0.5,0.1,0.9,0.6,0.8,1.2
			c-0.1,0.6-0.2,1.2-0.2,1.8C55.1,63.8,54.6,64.3,54.1,64.3z"/>
	</g>
	<g>
		<path class="st0" d="M56,58.5c-0.2,0-0.4-0.1-0.6-0.2c-0.4-0.3-0.5-1-0.2-1.4c0.7-1,1.6-1.9,2.7-2.6c0.5-0.3,1.1-0.2,1.4,0.3
			c0.3,0.5,0.2,1.1-0.3,1.4c-0.8,0.6-1.6,1.3-2.2,2.1C56.6,58.3,56.3,58.5,56,58.5z M72,58.4c-0.3,0-0.6-0.1-0.8-0.4
			c-0.5-0.7-1.2-1.4-2-1.9L69,55.9c-0.5-0.3-0.6-0.9-0.3-1.4c0.3-0.5,0.9-0.6,1.4-0.3l0.3,0.2c0.9,0.7,1.7,1.5,2.4,2.4
			c0.3,0.4,0.2,1.1-0.2,1.4C72.4,58.4,72.2,58.4,72,58.4z M62.3,54.5c-0.5,0-0.9-0.3-1-0.8c-0.1-0.5,0.3-1.1,0.8-1.2
			c1.2-0.2,2.5-0.2,3.7,0c0.5,0.1,0.9,0.6,0.8,1.2c-0.1,0.5-0.6,0.9-1.2,0.8c-1-0.2-2-0.2-3,0C62.4,54.5,62.4,54.5,62.3,54.5z"/>
	</g>
	<g>
		<path class="st0" d="M73.9,64.3c-0.6,0-1-0.4-1-1c0-0.6-0.1-1.2-0.2-1.8c-0.1-0.5,0.2-1.1,0.8-1.2c0.5-0.1,1.1,0.2,1.2,0.8
			c0.1,0.7,0.2,1.5,0.2,2.2C74.9,63.8,74.5,64.3,73.9,64.3z"/>
	</g>
</g>
</svg>
