<?xml version="1.0" encoding="utf-8"?>
<!-- Generator: Adobe Illustrator 25.2.3, SVG Export Plug-In . SVG Version: 6.00 Build 0)  -->
<svg version="1.1" id="Layer_1" xmlns="http://www.w3.org/2000/svg" xmlns:xlink="http://www.w3.org/1999/xlink" x="0px" y="0px"
	 viewBox="0 0 128 128" style="enable-background:new 0 0 128 128;" xml:space="preserve">
<style type="text/css">
	.st0{fill:#009FE3;}
</style>
<g id="_8">
	<g>
		<path class="st0" d="M79.2,112.8c-0.2,0-0.4,0-0.7,0l0.1-5c0.4,0,0.8,0,1.2,0c9.8-0.2,18.9-4.1,25.7-11.1
			c6.8-7,10.5-16.3,10.3-26.1c-0.3-20-16.7-36.1-36.6-36.1c-0.2,0-0.4,0-0.6,0l-0.1-5c0.2,0,0.5,0,0.7,0c22.7,0,41.3,18.2,41.6,41
			c0.2,11.1-4,21.6-11.7,29.6c-7.7,8-18.1,12.5-29.2,12.7C79.6,112.8,79.4,112.8,79.2,112.8z"/>
	</g>
	<g>
		<path class="st0" d="M49.4,112.8c-23,0-41.6-18.7-41.6-41.6c0-23,18.7-41.6,41.6-41.6s41.6,18.7,41.6,41.6
			C91.1,94.1,72.4,112.8,49.4,112.8z M49.4,34.5c-20.2,0-36.6,16.4-36.6,36.6c0,20.2,16.4,36.6,36.6,36.6s36.6-16.4,36.6-36.6
			C86.1,51,69.6,34.5,49.4,34.5z"/>
	</g>
	<g>
		<rect x="49.4" y="107.8" class="st0" width="29.1" height="5"/>
	</g>
	<g>
		<rect x="50.3" y="29.5" class="st0" width="29.1" height="5"/>
	</g>
	<g>
		<path class="st0" d="M32,61.3h3.8l6.1,12.5l-0.3,0.3V61.3h2.9v16.3h-3.8l-6-12.3L35,65v12.6h-3V61.3z"/>
	</g>
	<g>
		<path class="st0" d="M48.1,61.3h3.1v16.3h-3.1V61.3z M49.5,68.1h9.5v3h-9.5V68.1z M57.1,61.3h3.1v16.3H57L57.1,61.3z"/>
	</g>
	<g>
		<path class="st0" d="M64.6,85.4l-0.7-0.3c-0.4-0.2-0.8-0.5-1.1-0.9c-0.3-0.4-0.4-0.9-0.4-1.4h1.9c0,0.2,0.1,0.3,0.2,0.5
			c0.1,0.1,0.2,0.2,0.3,0.3c0.4,0.2,0.9,0.1,1.3-0.2c0.2-0.2,0.3-0.5,0.3-0.8v-0.2c0-0.3-0.1-0.6-0.2-0.8c-0.2-0.2-0.4-0.3-0.6-0.3
			h-0.8v-1.7h0.8c0.2,0,0.4-0.1,0.5-0.3c0.1-0.2,0.2-0.5,0.2-0.7v-0.2c0-0.2-0.1-0.5-0.2-0.7c-0.1-0.2-0.4-0.3-0.6-0.2
			c-0.2,0-0.3,0-0.4,0.1c-0.1,0.1-0.3,0.2-0.3,0.4c-0.1,0.2-0.2,0.4-0.2,0.6h-1.8c0-0.5,0.2-1,0.5-1.5c0.2-0.4,0.6-0.8,1-1
			c0.4-0.2,0.9-0.3,1.4-0.3c0.7,0,1.4,0.2,1.9,0.7c0.5,0.5,0.7,1.1,0.7,1.8v0.3c0,0.4-0.1,0.8-0.3,1.2c-0.2,0.3-0.6,0.6-0.9,0.7
			c0.4,0.1,0.8,0.4,1.1,0.7c0.3,0.4,0.4,0.9,0.4,1.4v0.3c0,0.5-0.1,1-0.3,1.4c-0.2,0.4-0.6,0.7-1,0.9c-0.5,0.2-1,0.3-1.5,0.3
			L64.6,85.4z"/>
	</g>
	<g>
		<path class="st0" d="M75.3,30.5c0-6.2-5.1-11.3-11.3-11.3c0,0,0,0,0,0c-3,0-5.9,1.2-8,3.3c-2.1,2.1-3.3,5-3.3,8l-3,0
			c0-3.8,1.5-7.4,4.2-10.1c2.7-2.7,6.3-4.2,10.1-4.2c0,0,0,0,0,0c7.9,0,14.3,6.4,14.3,14.3L75.3,30.5z"/>
	</g>
</g>
</svg>
