<?xml version="1.0" encoding="UTF-8"?>
<!DOCTYPE svg PUBLIC "-//W3C//DTD SVG 1.1//EN" "http://www.w3.org/Graphics/SVG/1.1/DTD/svg11.dtd">
<!-- Creator: CorelDRAW -->
<svg xmlns="http://www.w3.org/2000/svg" xml:space="preserve" width="1630px" height="351px" version="1.1" style="shape-rendering:geometricPrecision; text-rendering:geometricPrecision; image-rendering:optimizeQuality; fill-rule:evenodd; clip-rule:evenodd"
viewBox="0 0 1603.36 345.68"
 xmlns:xlink="http://www.w3.org/1999/xlink"
 xmlns:xodm="http://www.corel.com/coreldraw/odm/2003">
 <defs>
  <style type="text/css">
   <![CDATA[
    .str4 {stroke:#1378AC;stroke-width:7.28;stroke-miterlimit:22.9256}
    .str2 {stroke:#58351C;stroke-width:7.28;stroke-miterlimit:22.9256}
    .str3 {stroke:#6DA435;stroke-width:7.28;stroke-miterlimit:22.9256}
    .str1 {stroke:#E63D25;stroke-width:7.28;stroke-miterlimit:22.9256}
    .str0 {stroke:#FDC206;stroke-width:7.28;stroke-miterlimit:22.9256}
    .fil0 {fill:none}
    .fil5 {fill:#1378AC}
    .fil3 {fill:#58351C}
    .fil4 {fill:#6DA435}
    .fil2 {fill:#E63D25}
    .fil1 {fill:#FDC206}
    .fil7 {fill:#537D2D;fill-rule:nonzero}
    .fil6 {fill:#58351C;fill-rule:nonzero}
    .fil8 {fill:#876F5F;fill-rule:nonzero}
   ]]>
  </style>
 </defs>
 <g id="Warstwa_x0020_1">
  <metadata id="CorelCorpID_0Corel-Layer"/>
  <g id="_5023143584">
   <path class="fil0" d="M3.2 170.35l127.89 0.47c22.24,0.09 36.63,-11.84 36.65,-35.31l0.14 -131.89"/>
   <path class="fil0" d="M3.2 182.79l124.94 -0.46c21.73,-0.09 35.79,11.56 35.81,34.49l0.13 128.86"/>
   <path class="fil1 str0" d="M128.1 155.77l-123.78 0c4.36,-74.54 72.95,-146.26 152.61,-151.77l0 122.94c0,15.86 -12.97,28.83 -28.83,28.83z"/>
   <path class="fil2 str1" d="M173.7 155.17c10.75,0 19.46,8.55 19.46,19.1 0,10.54 -8.71,19.09 -19.46,19.09 -10.75,0 -19.47,-8.55 -19.47,-19.09 0,-10.55 8.72,-19.1 19.47,-19.1z"/>
   <path class="fil0" d="M344.12 165.99l-124.94 0.47c-21.72,0.08 -35.79,-11.56 -35.81,-34.5l-0.14 -128.86"/>
   <path class="fil0" d="M3.2 165.99l124.94 0.47c21.73,0.08 35.79,-11.56 35.81,-34.5l0.13 -128.86"/>
   <path class="fil0" d="M344.12 182.79l-124.94 -0.46c-21.72,-0.09 -35.79,11.56 -35.81,34.49l-0.14 128.86"/>
   <path class="fil0" d="M3.2 178.95l127.89 -0.48c22.24,-0.08 36.63,11.84 36.65,35.31l0.14 131.9"/>
   <path class="fil0" d="M343.58 170.35l-127.89 0.47c-22.24,0.09 -36.63,-11.84 -36.65,-35.31l-0.14 -131.89"/>
   <path class="fil0" d="M343.58 178.95l-127.89 -0.48c-22.24,-0.08 -36.63,11.84 -36.65,35.31l-0.14 131.9"/>
   <path class="fil3 str2" d="M218.91 155.66l123.8 0c-4.37,-74.54 -72.96,-146.25 -152.62,-151.76l0 122.94c0,15.85 12.97,28.82 28.82,28.82l0 0z"/>
   <path class="fil4 str3" d="M218.45 188.15l123.8 0c-4.36,74.55 -72.96,146.27 -152.62,151.77l0 -122.94c0,-15.85 12.97,-28.83 28.82,-28.83l0 0z"/>
   <path class="fil5 str4" d="M127.65 188.26l-123.79 0c4.36,74.54 72.96,146.26 152.62,151.77l0 -122.94c0,-15.86 -12.97,-28.83 -28.83,-28.83l0 0z"/>
  </g>
  <path class="fil6" d="M524.02 177.69c0,-0.71 0,-1.35 0,-1.93 0,-0.7 -0.05,-1.41 -0.17,-2.11 -0.12,-0.7 -0.18,-1.4 -0.18,-2.1 0,-0.71 0,-1.41 0,-2.11 0,-7.72 -1.96,-14.98 -5.88,-21.76 -3.92,-6.79 -8.95,-12.7 -15.09,-17.73 -6.15,-5.03 -12.99,-8.98 -20.54,-11.84 -7.54,-2.87 -14.94,-4.3 -22.2,-4.3 -3.04,0 -6.2,0.06 -9.47,0.17 -3.28,0.12 -6.44,0.24 -9.48,0.35 -3.16,0.24 -6.32,0.44 -9.48,0.62 -3.16,0.17 -6.37,0.26 -9.65,0.26 -2.46,0 -4.94,-0.06 -7.46,-0.17 -2.51,-0.12 -5.06,-0.3 -7.63,-0.53 -1.99,-0.12 -4.07,-0.21 -6.23,-0.26 -2.17,-0.07 -4.3,-0.09 -6.41,-0.09 -0.7,0 -0.88,0.29 -0.52,0.88 0.46,0.81 1.13,1.34 2.01,1.58 0.88,0.23 1.91,0.46 3.07,0.7 1.05,0.23 2.11,0.46 3.16,0.7 1.06,0.23 2.02,0.65 2.9,1.23 0.88,0.58 1.58,1.46 2.11,2.63 0.52,1.17 0.78,2.75 0.78,4.74l0 98.45c0,2.58 -0.11,4.8 -0.35,6.67 -0.23,1.88 -0.76,3.48 -1.58,4.83 -0.82,1.35 -2.02,2.49 -3.59,3.42 -1.58,0.94 -3.66,1.7 -6.23,2.28 -0.36,0.12 -0.5,0.38 -0.44,0.8 0.06,0.4 0.26,0.61 0.61,0.61 4.8,-0.24 9.63,-0.18 14.48,0.17 4.85,0.35 9.62,0.7 14.3,1.05 4.1,0.36 8.23,0.65 12.38,0.88 4.15,0.24 8.28,0.35 12.37,0.35 11.12,0 21.24,-1.37 30.36,-4.12 9.13,-2.75 16.97,-6.93 23.52,-12.55 6.55,-5.62 11.61,-12.72 15.18,-21.32 3.57,-8.6 5.35,-18.75 5.35,-30.45l0 0zm-15.79 6.67c0,9.12 -1.44,17.11 -4.3,23.95 -2.87,6.85 -6.91,12.55 -12.11,17.11 -5.21,4.57 -11.44,7.99 -18.69,10.27 -7.26,2.28 -15.27,3.43 -24.05,3.43 -4.21,0 -7.93,-0.21 -11.14,-0.62 -3.22,-0.41 -5.88,-1.35 -7.99,-2.81 -2.1,-1.46 -3.68,-3.57 -4.74,-6.32 -1.05,-2.75 -1.57,-6.4 -1.57,-10.96l0 -94.6c3.15,-1.05 6.31,-1.81 9.47,-2.28 3.16,-0.47 6.38,-0.7 9.66,-0.7 9.59,0 18.39,1.46 26.41,4.38 8.01,2.93 14.91,7.14 20.71,12.64 5.79,5.5 10.29,12.17 13.51,20.01 3.22,7.84 4.83,16.67 4.83,26.5l0 0zm152.51 -68.1l-0.18 -1.4 -2.1 0c-2.69,0 -5.27,-0.03 -7.73,-0.09 -2.45,-0.05 -4.97,-0.09 -7.54,-0.09l-8.25 0c-1.99,0 -4.03,0 -6.14,0 -1.99,0 -4.04,-0.11 -6.14,-0.35 -0.35,0 -0.56,0.21 -0.62,0.62 -0.06,0.41 0.09,0.67 0.44,0.79 4.56,0.7 8.04,2.16 10.44,4.39 2.4,2.22 3.6,5.73 3.6,10.52 0,6.09 0,12.11 0,18.08 0,5.97 0.06,11.94 0.17,17.9 0.12,5.97 0.18,12 0.18,18.08 0,5.97 0,11.94 0,17.9 0,5.5 -0.97,10.47 -2.9,14.92 -1.93,4.44 -4.56,8.28 -7.89,11.49 -3.34,3.22 -7.29,5.71 -11.85,7.47 -4.56,1.75 -9.53,2.63 -14.92,2.63 -5.26,0 -10.18,-0.85 -14.74,-2.55 -4.56,-1.7 -8.51,-4.12 -11.85,-7.28 -3.33,-3.16 -5.93,-6.93 -7.81,-11.32 -1.87,-4.39 -2.8,-9.28 -2.8,-14.66 0,-6.08 0,-12.16 0,-18.25 0,-6.08 0.05,-12.17 0.17,-18.25 0.12,-6.09 0.18,-12.11 0.18,-18.08 0,-5.97 0,-12.05 0,-18.25 0,-1.52 0.38,-2.95 1.14,-4.3 0.76,-1.35 1.75,-2.63 2.98,-3.86 1.23,-1.23 2.52,-2.31 3.86,-3.25 1.35,-0.94 2.66,-1.75 3.95,-2.45 0.35,-0.24 0.47,-0.53 0.35,-0.88 -0.12,-0.36 -0.35,-0.53 -0.7,-0.53 -2.34,0.12 -4.68,0.17 -7.02,0.17 -2.22,0 -4.5,0 -6.85,0 -4.56,0 -9.15,-0.05 -13.77,-0.17 -4.62,-0.11 -9.27,-0.29 -13.95,-0.53 -0.35,0 -0.56,0.21 -0.62,0.62 -0.06,0.41 0.09,0.67 0.44,0.79 4.33,1.05 7.75,2.54 10.27,4.47 2.51,1.94 3.77,5.3 3.77,10.09 0,1.29 -0.03,2.9 -0.08,4.83 -0.07,1.93 -0.09,4.07 -0.09,6.41 0,3.39 -0.03,7.25 -0.09,11.58 -0.06,4.33 -0.09,8.72 -0.09,13.16 0,4.8 0.03,9.6 0.09,14.39 0.06,4.8 0.14,9.22 0.26,13.26 0.12,4.03 0.32,7.51 0.62,10.44 0.29,2.92 0.61,4.97 0.96,6.14 1.75,5.38 4.36,10.3 7.81,14.74 3.45,4.45 7.46,8.28 12.02,11.5 4.57,3.22 9.54,5.73 14.92,7.54 5.38,1.82 10.88,2.73 16.5,2.73 7.49,0 14.3,-1.41 20.44,-4.22 6.15,-2.81 11.38,-6.64 15.71,-11.5 4.33,-4.85 7.66,-10.49 10,-16.93 2.35,-6.43 3.51,-13.28 3.51,-20.53l0 -63.71c0,-3.39 1.12,-6.47 3.34,-9.22 2.22,-2.74 5.09,-4.41 8.6,-5l0 0zm124.96 103.2c0,-2.1 -0.18,-4.15 -0.53,-6.14 -0.12,-0.36 -0.32,-0.56 -0.62,-0.62 -0.29,-0.06 -0.55,0.09 -0.78,0.44 -2.11,4.57 -4.25,8.51 -6.41,11.85 -2.17,3.33 -4.68,6.11 -7.55,8.33 -2.87,2.23 -6.17,3.9 -9.92,5 -3.74,1.12 -8.18,1.67 -13.33,1.67 -9.01,0 -17.35,-1.87 -25.01,-5.62 -7.66,-3.74 -14.28,-8.71 -19.83,-14.91 -5.56,-6.2 -9.89,-13.34 -12.99,-21.41 -3.1,-8.07 -4.65,-16.44 -4.65,-25.1 0,-8.31 1.32,-15.85 3.95,-22.64 2.63,-6.78 6.35,-12.6 11.14,-17.46 4.8,-4.86 10.59,-8.6 17.38,-11.24 6.78,-2.63 14.33,-3.95 22.64,-3.95 5.03,0 9.82,0.68 14.39,2.02 4.56,1.35 8.66,3.37 12.28,6.06 3.63,2.69 6.65,6.02 9.04,10 2.4,3.98 4.07,8.6 5,13.87 0.12,0.35 0.3,0.53 0.53,0.53 0.35,0 0.59,-0.18 0.7,-0.53 0.82,-5.39 1.55,-10.74 2.2,-16.06 0.64,-5.32 1.08,-10.79 1.31,-16.41 0,-0.47 -0.23,-0.7 -0.7,-0.7 -2.92,-0.24 -5.94,-0.53 -9.04,-0.88 -3.1,-0.35 -6.17,-0.76 -9.21,-1.23 -4.1,-0.58 -8.28,-1.17 -12.55,-1.75 -4.27,-0.59 -8.57,-0.88 -12.9,-0.88 -3.86,0 -8.04,0.23 -12.55,0.7 -4.5,0.47 -8.98,1.26 -13.42,2.37 -4.45,1.11 -8.69,2.61 -12.73,4.48 -4.03,1.87 -7.51,4.21 -10.44,7.01 -3.62,3.52 -6.84,7.44 -9.65,11.77 -2.81,4.33 -5.18,8.89 -7.11,13.68 -1.93,4.8 -3.39,9.71 -4.39,14.74 -0.99,5.04 -1.49,10.07 -1.49,15.1 0,9.71 1.64,18.51 4.92,26.41 3.27,7.9 7.87,14.69 13.77,20.36 5.91,5.68 12.9,10.06 20.97,13.16 8.08,3.1 16.85,4.65 26.33,4.65 7.72,0 15.33,-0.38 22.81,-1.14 7.49,-0.76 14.98,-1.78 22.47,-3.07 0.35,0 0.52,-0.12 0.52,-0.35 1.64,-3.27 2.96,-6.84 3.95,-10.7 1,-3.86 1.5,-7.66 1.5,-11.41l0 0zm337.31 24.74c0.35,0 0.53,-0.23 0.53,-0.7 0,-0.47 -0.18,-0.7 -0.53,-0.7 -3.98,-0.35 -7.43,-1.31 -10.36,-2.9 -2.92,-1.58 -5.38,-4.18 -7.36,-7.81 -4.45,-8.42 -8.7,-17.17 -12.73,-26.23 -4.03,-9.07 -7.96,-18.28 -11.76,-27.64 -3.8,-9.37 -7.46,-18.73 -10.97,-28.08 -3.51,-9.36 -6.84,-18.43 -10,-27.21 -0.59,-1.75 -1.23,-3.51 -1.93,-5.27 -0.7,-1.75 -1.35,-3.44 -1.93,-5.08 -0.12,-0.35 -0.35,-0.53 -0.7,-0.53 -0.35,0 -0.59,0.18 -0.7,0.53 -3.05,8.19 -6.12,16.5 -9.22,24.92 -3.1,8.42 -6.11,16.79 -9.04,25.1 -3.98,11.35 -7.95,22.58 -11.93,33.69 -3.98,11.12 -8.19,22.23 -12.64,33.35 -1.64,4.1 -4.01,7.25 -7.11,9.48 -3.1,2.22 -6.93,3.68 -11.49,4.38 -0.35,0.12 -0.5,0.38 -0.44,0.79 0.06,0.41 0.27,0.61 0.62,0.61 1.28,-0.11 2.54,-0.2 3.77,-0.26 1.23,-0.06 2.48,-0.14 3.77,-0.26 1.99,-0.23 4.04,-0.41 6.14,-0.53 2.11,-0.11 4.21,-0.17 6.32,-0.17 1.99,0 3.98,0.06 5.97,0.17 1.99,0.12 3.97,0.3 5.97,0.53 0.93,0.12 1.93,0.17 2.98,0.17 1.05,0 2.05,0.07 2.98,0.18l0 -1.4c-0.93,-0.12 -1.96,-0.26 -3.07,-0.44 -1.11,-0.18 -2.14,-0.5 -3.07,-0.97 -0.94,-0.47 -1.72,-1.08 -2.37,-1.84 -0.64,-0.76 -0.97,-1.73 -0.97,-2.89 0,-1.76 0.56,-4.63 1.67,-8.6 1.12,-3.98 2.4,-8.17 3.87,-12.55 1.46,-4.39 2.95,-8.63 4.47,-12.73 1.52,-4.09 2.69,-7.13 3.51,-9.12l37.21 0c2.8,7.49 5.67,14.94 8.59,22.37 2.93,7.43 5.8,14.89 8.6,22.38l-9.47 4.39c-0.36,0.23 -0.47,0.55 -0.36,0.96 0.12,0.41 0.36,0.56 0.71,0.44 0.58,-0.11 1.29,-0.18 2.11,-0.18 0.81,0 1.52,-0.05 2.1,-0.17 2.93,-0.23 5.85,-0.44 8.78,-0.61 2.92,-0.18 5.85,-0.27 8.77,-0.27 1.17,0 2.4,0.06 3.69,0.18 1.28,0.12 2.51,0.23 3.68,0.35 1.4,0.23 2.9,0.38 4.48,0.44 1.58,0.06 3.13,0.03 4.65,-0.09l4.21 -0.18 0 0zm-53.53 -57.56l-31.94 0c2.46,-6.9 4.71,-13.69 6.76,-20.36 2.04,-6.67 4.24,-13.51 6.58,-20.53 0.47,-1.52 0.96,-3.07 1.49,-4.65 0.53,-1.58 1.08,-3.19 1.67,-4.83l15.44 50.37 0 0zm143.38 33.87l-1.4 -0.52c-2.69,5.5 -6.58,9.94 -11.67,13.33 -5.09,3.4 -10.67,5.09 -16.76,5.09 -3.16,0 -6.08,-0.46 -8.77,-1.4 -2.7,-0.94 -5.04,-2.28 -7.02,-4.04 -1.99,-1.75 -3.57,-3.92 -4.74,-6.49 -1.17,-2.58 -1.76,-5.5 -1.76,-8.77l0 -88.63c0,-3.75 1.38,-6.76 4.13,-9.05 2.75,-2.28 5.82,-3.71 9.21,-4.29 0.35,-0.12 0.5,-0.38 0.44,-0.79 -0.06,-0.41 -0.26,-0.62 -0.61,-0.62 -3.4,0.24 -6.82,0.47 -10.27,0.7 -3.45,0.24 -6.93,0.35 -10.44,0.35 -7.49,0 -14.8,-0.17 -21.94,-0.52l0 1.4c3.74,0.12 6.93,1.32 9.56,3.6 2.64,2.28 3.95,5.41 3.95,9.39l0 96.7c0,1.64 -0.26,3.42 -0.79,5.35 -0.52,1.93 -1.28,3.72 -2.28,5.36 -0.99,1.64 -2.22,3.04 -3.68,4.21 -1.47,1.17 -3.07,1.81 -4.83,1.93 -0.35,0 -0.53,0.23 -0.53,0.7 0,0.47 0.18,0.7 0.53,0.7 1.4,-0.12 2.98,-0.17 4.74,-0.17 1.87,0 3.57,-0.06 5.08,-0.18 9.6,-0.35 19.25,-0.52 28.96,-0.52 11.82,0 23.7,0.52 35.63,1.57 0.23,0 0.47,-0.11 0.7,-0.35 0.12,-0.23 0.24,-0.43 0.35,-0.61 0.12,-0.17 0.18,-0.26 0.18,-0.26 0,-0.35 -0.06,-0.59 -0.18,-0.7 1.41,-3.04 2.35,-6.23 2.81,-9.57 0.47,-3.34 0.82,-6.7 1.06,-10.09 0,-0.47 0.03,-0.91 0.08,-1.32 0.06,-0.41 0.15,-0.9 0.26,-1.49l0 0zm89.16 -104.77l0 -1.41c0,-0.46 -0.18,-0.7 -0.53,-0.7 -0.81,0.12 -1.6,0.24 -2.36,0.35 -0.77,0.12 -1.44,0.24 -2.02,0.35 -0.94,0.24 -1.96,0.5 -3.07,0.79 -1.11,0.3 -2.14,0.44 -3.08,0.44l-76.16 0c-3.05,0 -5.73,-0.2 -8.08,-0.61 -2.34,-0.41 -4.74,-1.38 -7.19,-2.9 -0.47,-0.47 -0.82,-0.35 -1.05,0.35 -0.24,1.05 -0.53,2.14 -0.88,3.25 -0.35,1.11 -0.7,2.25 -1.05,3.42 -0.71,2.34 -1.35,4.63 -1.93,6.85 -0.59,2.22 -0.88,4.5 -0.88,6.84 0,0.94 0.11,1.99 0.35,3.16 0,0.35 0.15,0.56 0.44,0.61 0.29,0.06 0.55,-0.09 0.79,-0.44 1.4,-3.27 3.53,-6.23 6.4,-8.86 2.87,-2.63 6.18,-3.95 9.92,-3.95l28.95 0 0 103.73c0,2.8 -0.08,5.11 -0.26,6.93 -0.17,1.81 -0.64,3.3 -1.4,4.47 -0.76,1.18 -1.93,2.11 -3.51,2.81 -1.58,0.7 -3.78,1.35 -6.58,1.93 -0.35,0.12 -0.5,0.38 -0.44,0.79 0.06,0.41 0.26,0.61 0.61,0.61 3.05,-0.23 6.06,-0.43 9.04,-0.61 2.99,-0.17 6,-0.26 9.04,-0.26 4.21,0 8.4,0.12 12.55,0.35 4.15,0.23 8.28,0.52 12.37,0.87 0.35,0 0.56,-0.2 0.62,-0.61 0.05,-0.41 -0.1,-0.67 -0.45,-0.79 -4.44,-0.7 -8.16,-2.69 -11.14,-5.96 -2.98,-3.28 -4.47,-7.26 -4.47,-11.94l0 -102.49 21.23 0c2.58,0 5.03,0.2 7.37,0.61 2.34,0.41 4.45,1.14 6.32,2.19 1.87,1.06 3.42,2.49 4.65,4.3 1.23,1.82 2.14,4.19 2.72,7.12 0.12,0.35 0.35,0.52 0.7,0.52 0.35,0 0.59,-0.17 0.71,-0.52 0.93,-3.17 1.46,-6.7 1.57,-10.62 0.12,-3.92 0.18,-7.58 0.18,-10.97l0 0zm136.72 0.52l-0.18 -1.4 -2.1 0c-2.7,0 -5.27,-0.03 -7.73,-0.09 -2.45,-0.05 -4.97,-0.09 -7.54,-0.09l-8.25 0c-1.99,0 -4.04,0 -6.14,0 -1.99,0 -4.04,-0.11 -6.15,-0.35 -0.35,0 -0.55,0.21 -0.61,0.62 -0.06,0.41 0.09,0.67 0.44,0.79 4.56,0.7 8.04,2.16 10.44,4.39 2.4,2.22 3.6,5.73 3.6,10.52 0,6.09 0,12.11 0,18.08 0,5.97 0.06,11.94 0.18,17.9 0.11,5.97 0.17,12 0.17,18.08 0,5.97 0,11.94 0,17.9 0,5.5 -0.97,10.47 -2.9,14.92 -1.93,4.44 -4.56,8.28 -7.89,11.49 -3.34,3.22 -7.29,5.71 -11.85,7.47 -4.56,1.75 -9.54,2.63 -14.92,2.63 -5.26,0 -10.18,-0.85 -14.74,-2.55 -4.56,-1.7 -8.51,-4.12 -11.85,-7.28 -3.33,-3.16 -5.94,-6.93 -7.81,-11.32 -1.87,-4.39 -2.81,-9.28 -2.81,-14.66 0,-6.08 0,-12.16 0,-18.25 0,-6.08 0.06,-12.17 0.18,-18.25 0.12,-6.09 0.18,-12.11 0.18,-18.08 0,-5.97 0,-12.05 0,-18.25 0,-1.52 0.37,-2.95 1.14,-4.3 0.76,-1.35 1.75,-2.63 2.98,-3.86 1.23,-1.23 2.52,-2.31 3.86,-3.25 1.35,-0.94 2.66,-1.75 3.95,-2.45 0.35,-0.24 0.47,-0.53 0.35,-0.88 -0.11,-0.36 -0.35,-0.53 -0.7,-0.53 -2.34,0.12 -4.68,0.17 -7.02,0.17 -2.22,0 -4.5,0 -6.85,0 -4.56,0 -9.15,-0.05 -13.77,-0.17 -4.63,-0.11 -9.28,-0.29 -13.96,-0.53 -0.35,0 -0.55,0.21 -0.61,0.62 -0.06,0.41 0.09,0.67 0.44,0.79 4.33,1.05 7.75,2.54 10.27,4.47 2.51,1.94 3.77,5.3 3.77,10.09 0,1.29 -0.03,2.9 -0.09,4.83 -0.05,1.93 -0.08,4.07 -0.08,6.41 0,3.39 -0.04,7.25 -0.09,11.58 -0.06,4.33 -0.09,8.72 -0.09,13.16 0,4.8 0.03,9.6 0.09,14.39 0.05,4.8 0.14,9.22 0.26,13.26 0.12,4.03 0.32,7.51 0.61,10.44 0.3,2.92 0.62,4.97 0.97,6.14 1.75,5.38 4.36,10.3 7.81,14.74 3.45,4.45 7.46,8.28 12.02,11.5 4.56,3.22 9.54,5.73 14.92,7.54 5.38,1.82 10.88,2.73 16.5,2.73 7.48,0 14.3,-1.41 20.44,-4.22 6.14,-2.81 11.38,-6.64 15.71,-11.5 4.33,-4.85 7.66,-10.49 10,-16.93 2.34,-6.43 3.51,-13.28 3.51,-20.53l0 -63.71c0,-3.39 1.11,-6.47 3.34,-9.22 2.22,-2.74 5.09,-4.41 8.6,-5l0 0zm164.62 127.07c-1.29,-0.59 -2.49,-1 -3.6,-1.23 -1.11,-0.23 -2.19,-0.47 -3.25,-0.7 -1.87,-0.35 -3.77,-0.91 -5.7,-1.67 -1.93,-0.76 -3.72,-2.31 -5.35,-4.65 -0.7,-0.94 -1.47,-3.31 -2.29,-7.11 -0.81,-3.8 -1.63,-8.48 -2.45,-14.04 -0.82,-5.55 -1.64,-11.76 -2.46,-18.6 -0.82,-6.85 -1.61,-13.87 -2.37,-21.06 -0.76,-7.2 -1.46,-14.31 -2.1,-21.33 -0.65,-7.02 -1.26,-13.45 -1.85,-19.3 -0.23,-2.58 -0.5,-5.21 -0.78,-7.9 -0.3,-2.69 -0.53,-5.15 -0.71,-7.37 -0.17,-2.22 -0.32,-4.04 -0.44,-5.44 -0.12,-1.4 -0.17,-2.11 -0.17,-2.11l-1.23 -0.35c0,0 -0.62,1.06 -1.85,3.16 -1.22,2.11 -2.66,4.71 -4.3,7.81 -1.63,3.1 -3.36,6.32 -5.17,9.65 -1.81,3.34 -3.25,6.24 -4.3,8.69 -0.59,1.4 -1.2,2.81 -1.84,4.21 -0.65,1.41 -1.32,2.81 -2.02,4.22 -2.58,5.26 -5.06,10.55 -7.46,15.88 -2.4,5.32 -4.83,10.61 -7.28,15.88 -3.05,6.79 -6.09,13.66 -9.13,20.62 -3.04,6.97 -6.2,13.84 -9.48,20.62 -1.52,-2.92 -3.48,-7.25 -5.87,-12.98 -2.4,-5.73 -5.07,-11.7 -7.99,-17.9 -2.46,-5.03 -5.18,-10.51 -8.16,-16.41 -2.98,-5.91 -6.03,-11.82 -9.13,-17.73 -3.1,-5.91 -6.14,-11.64 -9.13,-17.2 -2.98,-5.56 -5.61,-10.44 -7.89,-14.65 -2.28,-4.21 -4.12,-7.61 -5.53,-10.18 -1.41,-2.58 -2.11,-3.86 -2.11,-3.86l-1.23 0.35c0,0 -0.08,0.73 -0.26,2.19 -0.17,1.46 -0.38,3.34 -0.61,5.62 -0.23,2.28 -0.5,4.82 -0.79,7.63 -0.29,2.81 -0.62,5.62 -0.97,8.42 -0.7,6.09 -1.4,12.79 -2.1,20.1 -0.7,7.31 -1.47,14.71 -2.28,22.2 -0.82,7.49 -1.64,14.8 -2.46,21.94 -0.82,7.14 -1.58,13.51 -2.28,19.13 -0.7,5.61 -1.35,10.27 -1.93,13.95 -0.59,3.69 -1.06,5.76 -1.41,6.23 -1.29,1.88 -2.57,3.04 -3.86,3.51 -1.28,0.47 -2.86,0.82 -4.74,1.05 -0.35,0.12 -0.76,0.18 -1.22,0.18 -0.35,0 -0.71,0.06 -1.06,0.18 -0.35,0.11 -0.47,0.41 -0.35,0.87 0.12,0.47 0.35,0.65 0.7,0.53 1.64,-0.23 3.25,-0.38 4.83,-0.44 1.58,-0.06 3.19,-0.09 4.83,-0.09 4.33,0 8.71,0.18 13.16,0.53 4.33,0.35 8.72,0.52 13.16,0.52 0.35,0 0.59,-0.17 0.7,-0.52 0.12,-0.35 0,-0.64 -0.35,-0.88 -0.82,-0.35 -1.64,-0.67 -2.46,-0.96 -0.82,-0.29 -1.57,-0.56 -2.28,-0.79 -2.22,-0.82 -4.04,-1.73 -5.44,-2.72 -1.4,-0.99 -2.1,-3.07 -2.1,-6.23 0,-10.06 0.47,-20.21 1.4,-30.45 0.94,-10.24 2.05,-20.27 3.34,-30.1 0.46,-3.98 0.93,-7.87 1.4,-11.67 0.46,-3.81 0.88,-7.76 1.23,-11.85 2.8,5.27 5.26,10.24 7.37,14.92 2.11,4.68 4.39,9.77 6.84,15.27 4.8,10.76 9.86,21.79 15.18,33.08 5.33,11.29 11.68,21.97 19.05,32.03 0.23,0.23 0.46,0.35 0.7,0.35 0.23,0 0.41,-0.12 0.53,-0.35 2.22,-4.56 4.41,-9.13 6.58,-13.69 2.16,-4.56 4.3,-9.13 6.4,-13.69 5.38,-11.35 10.71,-22.87 15.97,-34.57 5.27,-11.7 10.82,-23.05 16.67,-34.05 0.47,5.5 0.97,10.59 1.5,15.27 0.52,4.68 1.14,9.77 1.84,15.27l0 -0.18c1.05,8.78 2.02,17.87 2.9,27.29 0.87,9.42 1.31,18.58 1.31,27.47 0,1.29 -0.23,2.6 -0.7,3.95 -0.47,1.34 -0.93,2.72 -1.4,4.12 -0.12,0.35 -0.24,0.7 -0.35,1.05 -0.12,0.35 -0.24,0.71 -0.36,1.06 -0.23,0.58 0,0.87 0.71,0.87 6.32,0.24 12.63,0.39 18.95,0.44 6.32,0.06 12.64,0.09 18.96,0.09l0.17 -1.4 0 0z"/>
  <path class="fil7" d="M838.17 244.55l0 -1.4c-5.73,-0.58 -9.77,-2.22 -12.11,-4.91 -2.34,-2.69 -3.51,-7.02 -3.51,-12.99l0 -97.93c0,-2.11 0.29,-3.77 0.88,-5 0.58,-1.23 1.4,-2.22 2.46,-2.99 1.05,-0.76 2.3,-1.37 3.77,-1.84 1.46,-0.47 3.07,-0.87 4.83,-1.23 0.35,-0.11 0.46,-0.41 0.35,-0.87 -0.12,-0.47 -0.35,-0.65 -0.7,-0.53 -3.17,0.47 -6.35,0.79 -9.57,0.97 -3.22,0.17 -6.46,0.26 -9.74,0.26 -7.14,0 -14.1,-0.35 -20.88,-1.06 -0.36,0 -0.53,0.24 -0.53,0.71 0,0.35 0.17,0.58 0.53,0.7 3.38,0.47 6.34,1.46 8.86,2.98 2.51,1.53 3.77,4.21 3.77,8.08l0 98.45c0,8.54 -3.98,14.33 -11.93,17.38 -0.35,0.23 -0.5,0.52 -0.44,0.87 0.06,0.35 0.26,0.53 0.61,0.53 4.45,-0.11 8.93,-0.2 13.43,-0.26 4.5,-0.06 8.98,-0.09 13.42,-0.09 2.69,0 5.39,0 8.07,0 2.81,0 5.62,0.06 8.43,0.17l0 0zm146.72 -128.11l-0.17 -1.41c-0.47,0 -1.18,-0.02 -2.11,-0.08 -0.94,-0.06 -1.7,-0.09 -2.28,-0.09 -1.18,-0.23 -2.4,-0.26 -3.69,-0.09 -1.29,0.18 -2.52,0.33 -3.68,0.44l-6.15 0.53c-3.39,0.23 -6.78,0.14 -10.18,-0.27 -3.39,-0.4 -6.78,-0.79 -10.18,-1.14 -0.35,-0.11 -0.61,-0.03 -0.79,0.27 -0.17,0.29 -0.14,0.55 0.09,0.79 0.82,0.7 1.76,1.14 2.81,1.31 1.05,0.18 2.11,0.38 3.16,0.62 1.17,0.23 2.34,0.46 3.51,0.7 1.17,0.23 2.25,0.79 3.25,1.66 0.99,0.88 1.78,2.17 2.36,3.87 0.59,1.7 0.89,4 0.89,6.93 0,14.63 0.17,29.19 0.52,43.7 0.35,14.62 0.53,29.19 0.53,43.7l0 1.4c-16.5,-18.6 -32.94,-36.71 -49.32,-54.31 -16.38,-17.61 -33.23,-35.31 -50.54,-53.09 -0.24,-0.24 -0.59,-0.24 -1.05,0 -0.59,0.47 -1.03,2.19 -1.32,5.17 -0.3,2.98 -0.53,6.82 -0.7,11.5 -0.18,4.68 -0.3,10 -0.36,15.97 -0.06,5.97 -0.09,12.17 -0.09,18.6 0,9.48 0.03,18.78 0.09,27.91 0.06,9.12 0.15,16.9 0.27,23.34 0.11,3.04 0.17,5.67 0.17,7.9 0,2.22 0,3.86 0,4.91 0,2.11 -0.2,3.83 -0.61,5.18 -0.41,1.34 -0.97,2.46 -1.67,3.33 -0.7,0.88 -1.52,1.58 -2.46,2.11 -0.93,0.52 -1.93,1.08 -2.98,1.67 -0.94,0.58 -1.87,1.17 -2.81,1.75 -0.93,0.58 -1.99,1.35 -3.16,2.28 -0.23,0.24 -0.26,0.53 -0.09,0.88 0.18,0.35 0.39,0.47 0.62,0.35 3.04,-0.47 6.08,-0.88 9.13,-1.23 3.04,-0.35 6.02,-0.52 8.95,-0.52 2.22,0 4.41,0.09 6.58,0.26 2.16,0.18 4.3,0.38 6.4,0.61 1.64,0.23 3.28,0.41 4.91,0.53 1.65,0.12 3.29,0.24 4.92,0.35 0.35,0 0.56,-0.15 0.61,-0.44 0.06,-0.29 -0.03,-0.55 -0.26,-0.79 -1.52,-1.17 -2.98,-1.96 -4.38,-2.37 -1.41,-0.41 -2.75,-0.73 -4.04,-0.96 -1.17,-0.23 -2.25,-0.53 -3.25,-0.88 -0.99,-0.35 -1.87,-0.97 -2.63,-1.84 -0.76,-0.88 -1.35,-2.16 -1.76,-3.86 -0.4,-1.7 -0.61,-4.07 -0.61,-7.11 0,-6.09 -0.12,-12.11 -0.35,-18.08 -0.24,-5.97 -0.47,-11.99 -0.7,-18.07 -0.24,-6.21 -0.47,-12.32 -0.71,-18.34 -0.23,-6.03 -0.35,-12.03 -0.35,-17.99 0,-2.23 0.09,-4.39 0.27,-6.5 0.17,-2.1 0.38,-4.27 0.61,-6.49 2.34,2.57 4.42,4.94 6.23,7.11 1.82,2.16 3.89,4.59 6.23,7.28 13.81,15.8 27.85,31.47 42.12,47.03 14.27,15.56 29.37,30.19 45.28,43.88 0.24,0.24 0.5,0.26 0.79,0.09 0.3,-0.18 0.44,-0.38 0.44,-0.62 0.94,-10.76 1.55,-21.44 1.84,-32.02 0.3,-10.6 0.44,-21.21 0.44,-31.86 0,-4.92 0,-9.71 0,-14.39 0,-4.8 -0.06,-9.59 -0.17,-14.39 -0.12,-4.8 -0.18,-9.59 -0.18,-14.39 0,-4.8 0,-9.6 0,-14.39 0,-1.18 0.33,-2.19 0.97,-3.08 0.64,-0.87 1.49,-1.58 2.54,-2.1 1.05,-0.53 2.2,-0.96 3.42,-1.32 1.23,-0.35 2.38,-0.7 3.43,-1.05 0.23,-0.12 0.46,-0.17 0.7,-0.17 0.23,0 0.46,-0.06 0.7,-0.18l0 0z"/>
  <path class="fil6" d="M411.92 12.43l0 25.51 11.8 0c2.71,0 4.71,-0.61 5.96,-1.8 1.26,-1.19 2.09,-3.56 2.52,-7.1l1.76 0 0 21.94 -1.76 0c-0.03,-2.51 -0.36,-4.36 -0.98,-5.53 -0.62,-1.19 -1.49,-2.08 -2.6,-2.66 -1.09,-0.59 -2.73,-0.89 -4.9,-0.89l-11.8 0 0 20.38c0,3.29 0.19,5.46 0.62,6.5 0.31,0.8 0.98,1.49 2.01,2.06 1.4,0.77 2.85,1.16 4.39,1.16l2.35 0 0 1.76 -27.84 0 0 -1.76 2.28 0c2.68,0 4.64,-0.78 5.85,-2.35 0.77,-1.01 1.14,-3.48 1.14,-7.37l0 -41.92c0,-3.28 -0.21,-5.45 -0.62,-6.49 -0.32,-0.8 -0.98,-1.49 -1.96,-2.06 -1.37,-0.77 -2.84,-1.14 -4.41,-1.14l-2.28 0 0 -1.79 48.27 0 0.62 14.26 -1.68 0c-0.82,-3.02 -1.8,-5.24 -2.89,-6.66 -1.1,-1.42 -2.45,-2.45 -4.07,-3.09 -1.62,-0.63 -4.1,-0.96 -7.48,-0.96l-14.3 0zm176.53 -1.76l0 -1.79 22.98 0 0 1.79 -2.45 0c-2.55,0 -4.51,1.06 -5.88,3.2 -0.67,0.99 -1.02,3.28 -1.02,6.89l0 26.3c0,6.52 -0.63,11.57 -1.92,15.14 -1.29,3.59 -3.84,6.68 -7.61,9.24 -3.79,2.57 -8.93,3.86 -15.43,3.86 -7.09,0 -12.46,-1.23 -16.12,-3.69 -3.67,-2.45 -6.27,-5.75 -7.81,-9.9 -1.01,-2.84 -1.53,-8.16 -1.53,-15.98l0 -25.37c0,-3.98 -0.54,-6.59 -1.65,-7.83 -1.09,-1.24 -2.87,-1.86 -5.32,-1.86l-2.45 0 0 -1.79 28.03 0 0 1.79 -2.48 0c-2.68,0 -4.6,0.83 -5.75,2.53 -0.8,1.14 -1.19,3.54 -1.19,7.16l0 28.29c0,2.51 0.23,5.4 0.69,8.65 0.47,3.25 1.3,5.8 2.51,7.61 1.21,1.81 2.96,3.32 5.25,4.49 2.28,1.2 5.07,1.78 8.39,1.78 4.24,0 8.03,-0.93 11.38,-2.77 3.35,-1.85 5.65,-4.22 6.87,-7.11 1.23,-2.89 1.85,-7.77 1.85,-14.66l0 -26.28c0,-4.04 -0.46,-6.58 -1.34,-7.59 -1.26,-1.4 -3.1,-2.1 -5.55,-2.1l-2.45 0zm118.09 -1.79l17.6 0 39.67 48.67 0 -37.41c0,-3.99 -0.46,-6.49 -1.34,-7.47 -1.19,-1.34 -3.06,-2 -5.6,-2l-2.26 0 0 -1.79 22.59 0 0 1.79 -2.31 0c-2.74,0 -4.68,0.83 -5.83,2.48 -0.7,1.03 -1.04,3.35 -1.04,6.99l0 54.67 -1.73 0 -42.77 -52.24 0 39.96c0,3.98 0.43,6.47 1.29,7.46 1.21,1.34 3.09,2.01 5.6,2.01l2.29 0 0 1.76 -22.57 0 0 -1.76 2.24 0c2.77,0 4.73,-0.83 5.89,-2.5 0.71,-1.01 1.05,-3.35 1.05,-6.97l0 -45.12c-1.88,-2.2 -3.32,-3.66 -4.28,-4.36 -0.98,-0.7 -2.4,-1.36 -4.28,-1.96 -0.93,-0.28 -2.33,-0.42 -4.21,-0.42l0 -1.79zm169.08 64.88l0 -1.76 2.44 0c2.74,0 4.68,-0.88 5.83,-2.65 0.7,-1.04 1.06,-3.41 1.06,-7.07l0 -41.92c0,-4.04 -0.46,-6.58 -1.34,-7.59 -1.24,-1.4 -3.1,-2.1 -5.55,-2.1l-2.44 0 0 -1.79 26.41 0c9.68,0 17.06,1.12 22.13,3.3 5.04,2.21 9.11,5.88 12.19,11.01 3.07,5.14 4.61,11.07 4.61,17.8 0,9.03 -2.73,16.57 -8.21,22.63 -6.16,6.76 -15.55,10.14 -28.14,10.14l-28.99 0zm18.51 -4.68c4.05,0.89 7.44,1.34 10.19,1.34 7.39,0 13.53,-2.6 18.42,-7.81 4.88,-5.19 7.33,-12.25 7.33,-21.15 0,-8.95 -2.45,-16.02 -7.33,-21.18 -4.89,-5.17 -11.14,-7.75 -18.8,-7.75 -2.87,0 -6.14,0.45 -9.81,1.39l0 55.16zm190.75 -17.04l-25.11 0 -4.4 10.24c-1.09,2.52 -1.63,4.4 -1.63,5.65 0,0.98 0.47,1.85 1.41,2.6 0.94,0.75 2.97,1.24 6.1,1.47l0 1.76 -20.43 0 0 -1.76c2.71,-0.49 4.46,-1.11 5.26,-1.88 1.64,-1.52 3.43,-4.64 5.41,-9.32l22.83 -53.38 1.66 0 22.59 53.95c1.81,4.34 3.46,7.15 4.94,8.44 1.49,1.29 3.56,2.03 6.21,2.19l0 1.76 -25.61 0 0 -1.76c2.58,-0.13 4.33,-0.57 5.24,-1.31 0.92,-0.72 1.38,-1.61 1.38,-2.67 0,-1.41 -0.66,-3.61 -1.93,-6.65l-3.92 -9.33zm-1.34 -3.54l-11 -26.21 -11.29 26.21 22.29 0zm181.61 -41.08l1.49 22.04 -1.49 0c-1.97,-6.6 -4.8,-11.35 -8.46,-14.25 -3.67,-2.91 -8.06,-4.36 -13.21,-4.36 -4.31,0 -8.19,1.09 -11.67,3.28 -3.48,2.19 -6.21,5.66 -8.2,10.45 -1.99,4.78 -2.99,10.74 -2.99,17.85 0,5.86 0.93,10.95 2.83,15.26 1.88,4.3 4.7,7.6 8.49,9.9 3.77,2.3 8.08,3.45 12.93,3.45 4.21,0 7.92,-0.9 11.15,-2.71 3.22,-1.8 6.77,-5.38 10.62,-10.73l1.48 0.94c-3.24,5.78 -7.05,10.01 -11.38,12.69 -4.34,2.68 -9.48,4.02 -15.46,4.02 -10.75,0 -19.07,-3.99 -24.97,-11.97 -4.39,-5.93 -6.6,-12.92 -6.6,-20.95 0,-6.47 1.46,-12.43 4.35,-17.85 2.9,-5.42 6.91,-9.62 11.98,-12.61 5.1,-2.97 10.65,-4.45 16.68,-4.45 4.68,0 9.32,1.14 13.88,3.43 1.33,0.7 2.3,1.06 2.87,1.06 0.85,0 1.6,-0.31 2.24,-0.92 0.83,-0.85 1.42,-2.06 1.78,-3.57l1.66 0zm111.49 3.25l0 -1.79 27.8 0 0 1.79 -2.35 0c-2.65,0 -4.58,0.78 -5.78,2.33 -0.77,1.03 -1.16,3.48 -1.16,7.36l0 31.73c0,4.89 -0.53,8.84 -1.6,11.86 -1.07,3.04 -2.91,5.68 -5.52,7.92 -2.62,2.25 -5.78,3.38 -9.47,3.38 -3.01,0 -5.36,-0.75 -7.09,-2.22 -1.72,-1.49 -2.58,-3.19 -2.58,-5.1 0,-1.56 0.39,-2.74 1.19,-3.54 1.06,-1 2.29,-1.49 3.69,-1.49 1.01,0 1.94,0.33 2.74,1 0.82,0.67 1.85,2.47 3.09,5.37 0.74,1.72 1.68,2.58 2.83,2.58 0.86,0 1.66,-0.52 2.41,-1.58 0.75,-1.05 1.13,-2.92 1.13,-5.6l0 -44.31c0,-3.28 -0.21,-5.45 -0.62,-6.49 -0.33,-0.8 -1,-1.49 -2.01,-2.06 -1.37,-0.77 -2.82,-1.14 -4.36,-1.14l-2.34 0zm168.55 41.37l-25.11 0 -4.39 10.24c-1.1,2.52 -1.64,4.4 -1.64,5.65 0,0.98 0.48,1.85 1.41,2.6 0.94,0.75 2.97,1.24 6.1,1.47l0 1.76 -20.42 0 0 -1.76c2.71,-0.49 4.45,-1.11 5.25,-1.88 1.64,-1.52 3.43,-4.64 5.41,-9.32l22.83 -53.38 1.66 0 22.59 53.95c1.81,4.34 3.46,7.15 4.95,8.44 1.48,1.29 3.55,2.03 6.2,2.19l0 1.76 -25.6 0 0 -1.76c2.58,-0.13 4.32,-0.57 5.24,-1.31 0.91,-0.72 1.37,-1.61 1.37,-2.67 0,-1.41 -0.65,-3.61 -1.93,-6.65l-3.92 -9.33zm-1.34 -3.54l-11 -26.21 -11.29 26.21 22.29 0z"/>
  <path class="fil8" d="M432.04 283.9l-2.69 5.36c-3.28,-2.43 -6.48,-3.64 -9.62,-3.64 -4.98,0 -8.92,1.76 -11.81,5.27 -2.88,3.51 -4.31,8.16 -4.31,13.95 0,5.5 1.41,9.93 4.24,13.29 2.82,3.36 6.67,5.04 11.54,5.04 3.48,0 6.28,-1.05 8.43,-3.12l0 -11.15 -6.59 0 0 -5.53 13.09 0 0 20.74c-1.73,1.47 -4.15,2.66 -7.25,3.56 -3.09,0.9 -6.11,1.34 -9.04,1.34 -6.56,0 -11.75,-2.22 -15.54,-6.68 -3.81,-4.45 -5.72,-10.37 -5.72,-17.76 0,-7.36 2.09,-13.34 6.26,-17.93 4.17,-4.58 9.81,-6.86 16.89,-6.86 4.97,0 9,1.37 12.12,4.12zm51.98 10.33l0 4.26 -4.39 3.1 0 20.77 21.52 0 0 5.84 -28.02 0 0 -22.06 -4.94 3.44 0 -4.69 4.94 -3.3 0 -21 6.5 0 0 16.6 4.39 -2.96zm78.72 40.34l2.19 4.62c-2.09,0.76 -4.02,1.14 -5.79,1.14 -2.53,0 -4.64,-0.76 -6.32,-2.24 -1.68,-1.5 -2.52,-3.44 -2.52,-5.83 0,-1.43 0.35,-2.78 1.04,-4.06l-15.44 0 0 -47.61 28.44 0 0 5.84 -21.91 0 0 13.24 15.7 0 0 5.52 -15.7 0 0 17.17 21.56 0 0 5.84 -5.14 0c-0.09,0 -0.54,0.25 -1.35,0.75 -0.81,0.49 -1.32,1.04 -1.52,1.63 -0.21,0.58 -0.31,1.23 -0.31,1.95 0,2.03 1.19,3.05 3.6,3.05 1.17,0 2.33,-0.33 3.47,-1.01zm51.47 -6.37l-13.59 0 0 -47.61c5.79,-0.28 9.96,-0.42 12.51,-0.42 4.7,0 8.34,1 10.93,3.03 2.57,2.02 3.86,4.93 3.86,8.7 0,2.21 -0.82,4.22 -2.46,6.04 -1.66,1.83 -3.48,2.96 -5.46,3.41 3.76,0.91 6.51,2.42 8.23,4.52 1.72,2.11 2.58,4.97 2.58,8.59 0,4.18 -1.53,7.51 -4.59,10 -3.07,2.5 -7.08,3.74 -12.01,3.74zm-7.09 -42.41l0 13.68c1.36,0.13 3.06,0.2 5.07,0.2 6.15,0 9.23,-2.51 9.23,-7.51 0,-4.41 -2.82,-6.6 -8.48,-6.6 -2.17,0 -4.1,0.07 -5.82,0.23zm0 18.72l0 18.17c2.24,0.21 3.95,0.32 5.13,0.32 4.08,0 7.06,-0.77 8.92,-2.29 1.88,-1.53 2.82,-3.96 2.82,-7.3 0,-3.09 -0.9,-5.38 -2.68,-6.85 -1.79,-1.48 -4.77,-2.21 -8.96,-2.21l-5.23 0.16zm58.09 21.52l2.38 -5.98c1.21,0.89 2.73,1.63 4.53,2.22 1.81,0.6 3.43,0.9 4.86,0.9 2.53,0 4.57,-0.7 6.11,-2.09 1.54,-1.39 2.3,-3.15 2.3,-5.29 0,-1.61 -0.42,-3.1 -1.27,-4.47 -0.86,-1.38 -3.01,-2.88 -6.46,-4.51l-3.84 -1.78c-3.25,-1.52 -5.51,-3.32 -6.8,-5.39 -1.3,-2.09 -1.94,-4.59 -1.94,-7.52 0,-3.55 1.26,-6.5 3.77,-8.84 2.52,-2.34 5.75,-3.5 9.69,-3.5 5.27,0 8.93,0.85 10.99,2.56l-1.92 5.66c-0.86,-0.63 -2.19,-1.23 -3.97,-1.82 -1.77,-0.59 -3.42,-0.88 -4.94,-0.88 -2.2,0 -3.95,0.62 -5.21,1.89 -1.28,1.25 -1.91,2.87 -1.91,4.83 0,1.23 0.23,2.32 0.69,3.32 0.45,1 1.09,1.83 1.9,2.51 0.81,0.66 2.47,1.61 4.99,2.83l3.89 1.85c3.25,1.53 5.54,3.37 6.85,5.5 1.31,2.14 1.96,4.85 1.96,8.15 0,3.57 -1.43,6.61 -4.3,9.09 -2.88,2.5 -6.72,3.74 -11.52,3.74 -4.23,0 -7.83,-1 -10.83,-2.98zm61.6 2.17l0 -1.62 20.48 -40.15 -20.15 0 0 -5.84 29.09 0 0 1.62 -20.54 40.15 21.26 0 0 5.84 -30.14 0zm94.37 0l-3.29 -10.04 -17.71 0 -3.51 10.04 -7.28 0 19.34 -48.27 1.72 0 17.94 48.27 -7.21 0zm-11.9 -35.79l-7.37 20.97 14.13 0 -6.76 -20.97zm71.09 33.62l2.38 -5.98c1.2,0.89 2.72,1.63 4.53,2.22 1.81,0.6 3.43,0.9 4.86,0.9 2.53,0 4.57,-0.7 6.1,-2.09 1.55,-1.39 2.31,-3.15 2.31,-5.29 0,-1.61 -0.42,-3.1 -1.27,-4.47 -0.86,-1.38 -3.01,-2.88 -6.46,-4.51l-3.84 -1.78c-3.25,-1.52 -5.51,-3.32 -6.8,-5.39 -1.3,-2.09 -1.94,-4.59 -1.94,-7.52 0,-3.55 1.26,-6.5 3.77,-8.84 2.52,-2.34 5.75,-3.5 9.69,-3.5 5.26,0 8.93,0.85 10.99,2.56l-1.92 5.66c-0.87,-0.63 -2.2,-1.23 -3.97,-1.82 -1.78,-0.59 -3.42,-0.88 -4.94,-0.88 -2.21,0 -3.95,0.62 -5.21,1.89 -1.28,1.25 -1.91,2.87 -1.91,4.83 0,1.23 0.23,2.32 0.69,3.32 0.45,1 1.08,1.83 1.89,2.51 0.81,0.66 2.48,1.61 5,2.83l3.89 1.85c3.25,1.53 5.54,3.37 6.85,5.5 1.3,2.14 1.96,4.85 1.96,8.15 0,3.57 -1.43,6.61 -4.31,9.09 -2.87,2.5 -6.71,3.74 -11.51,3.74 -4.23,0 -7.83,-1 -10.83,-2.98zm80.58 -39.6l0 41.77 -6.5 0 0 -41.77 -15.14 0 0 -5.84 37.48 0 0 5.84 -15.84 0zm76.77 41.77l-12.7 -20.44c-1.45,0 -3.75,-0.11 -6.89,-0.33l0 20.77 -6.5 0 0 -47.61c0.23,0 1.92,-0.08 5.05,-0.25 3.14,-0.16 5.41,-0.24 6.84,-0.24 11.44,0 17.16,4.55 17.16,13.66 0,2.98 -0.92,5.68 -2.76,8.07 -1.84,2.39 -4.03,3.88 -6.57,4.46l13.82 21.91 -7.45 0zm-19.59 -41.77l0 15.48c1.55,0.21 3.07,0.32 4.55,0.32 3.89,0 6.73,-0.62 8.51,-1.88 1.78,-1.26 2.67,-3.5 2.67,-6.73 0,-2.66 -0.95,-4.58 -2.86,-5.76 -1.91,-1.16 -4.93,-1.75 -9.04,-1.75 -0.65,0 -1.92,0.11 -3.83,0.32zm58.69 17.55c0,-6.89 1.73,-12.64 5.2,-17.28 3.45,-4.64 8.12,-6.96 13.99,-6.96 6.61,0 11.67,2.13 15.19,6.4 3.52,4.28 5.29,10.22 5.29,17.84 0,7.83 -1.78,13.96 -5.31,18.39 -3.53,4.43 -8.58,6.64 -15.17,6.64 -6.01,0 -10.7,-2.34 -14.09,-7.02 -3.4,-4.67 -5.1,-10.67 -5.1,-18.01zm6.84 0c0,5.47 1.07,10.03 3.23,13.69 2.15,3.67 5.19,5.5 9.12,5.5 4.43,0 7.82,-1.68 10.15,-5.04 2.33,-3.36 3.49,-8.08 3.49,-14.15 0,-12.25 -4.55,-18.39 -13.64,-18.39 -4.03,0 -7.1,1.65 -9.2,4.94 -2.11,3.29 -3.15,7.79 -3.15,13.45zm100.14 24.88l-24.61 -34.82 0 34.16 -6.17 0 0 -47.61 2.6 0 23.95 32.92 0 -32.92 6.18 0 0 48.27 -1.95 0zm67.8 -0.66l-3.28 -10.04 -17.72 0 -3.5 10.04 -7.28 0 19.34 -48.27 1.72 0 17.93 48.27 -7.21 0zm-11.89 -35.79l-7.38 20.97 14.14 0 -6.76 -20.97zm71.61 35.79l0 -1.62 20.48 -40.15 -20.16 0 0 -5.84 29.09 0 0 1.62 -20.54 40.15 21.26 0 0 5.84 -30.13 0zm12.8 -59.15c1.07,0 1.98,0.38 2.72,1.12 0.74,0.74 1.12,1.64 1.12,2.68 0,1.06 -0.38,1.97 -1.12,2.71 -0.74,0.76 -1.65,1.12 -2.72,1.12 -1.03,0 -1.93,-0.36 -2.67,-1.12 -0.76,-0.74 -1.13,-1.65 -1.13,-2.71 0,-1.06 0.37,-1.96 1.11,-2.69 0.74,-0.74 1.64,-1.11 2.69,-1.11zm71.91 37.83l0 21.32 -6.5 0 0 -21.32 -15.34 -26.29 6.7 0 11.86 20.8 11.86 -20.8 6.7 0 -15.28 26.29zm80.03 -24.54l-2.19 5.56c-2.07,-1.52 -5.35,-2.28 -9.8,-2.28 -4.19,0 -7.55,1.8 -10.07,5.4 -2.53,3.6 -3.78,8.24 -3.78,13.91 0,5.42 1.29,9.82 3.88,13.18 2.59,3.37 5.93,5.06 10.03,5.06 4.46,0 7.89,-1.59 10.3,-4.75l3.57 4.97c-3.76,3.75 -8.62,5.62 -14.56,5.62 -6.22,0 -11.11,-2.24 -14.68,-6.72 -3.58,-4.49 -5.37,-10.41 -5.37,-17.75 0,-7.1 1.9,-13.01 5.72,-17.71 3.82,-4.7 8.74,-7.05 14.79,-7.05 5.18,0 9.23,0.85 12.16,2.56zm39.62 45.86l0 -47.61 6.5 0 0 47.61 -6.5 0zm73.5 0l-3.29 -10.04 -17.72 0 -3.5 10.04 -7.28 0 19.34 -48.27 1.72 0 17.94 48.27 -7.21 0zm-11.9 -35.79l-7.37 20.97 14.13 0 -6.76 -20.97z"/>
 </g>
</svg>
